<svg width="110" height="65" viewBox="0 0 110 65" fill="none" xmlns="http://www.w3.org/2000/svg">
<path d="M77.6525 42.6155L77.5282 42.588C77.5244 42.4504 77.5209 42.3134 77.5174 42.1767C77.507 41.7671 77.4966 41.3608 77.4778 40.9552C77.4778 40.955 77.4778 40.9549 77.4778 40.9547L77.4777 40.9537C77.2777 36.8049 77.0778 32.6567 76.8652 28.5084L76.8652 28.5084C76.7928 27.0875 76.707 25.6687 76.6211 24.2482C76.5845 23.6429 76.5479 23.0373 76.5123 22.4311C75.9959 22.6073 75.4794 22.7836 74.9629 22.9599C72.1395 23.9234 69.3144 24.8875 66.4894 25.8464L66.4893 25.8465C65.2311 26.2731 63.9724 26.697 62.714 27.1209C60.5651 27.8447 58.417 28.5683 56.273 29.3042C56.0193 29.3918 55.784 29.3958 55.5708 29.3769C55.4688 29.3679 55.3686 29.3533 55.2763 29.3398L55.2683 29.3386C55.1714 29.3245 55.0825 29.3117 54.9937 29.3042C54.7282 29.2819 54.4624 29.2597 54.1964 29.2375C53.4386 29.1743 52.6795 29.1109 51.9219 29.0434L77.6525 42.6155ZM77.6525 42.6155L77.5418 42.6497C77.5583 42.7034 77.5584 42.7696 77.5391 42.8658C77.5295 42.9137 77.5163 42.9638 77.5005 43.021C77.4981 43.0298 77.4956 43.0389 77.493 43.0482C77.4797 43.0962 77.4649 43.1494 77.4523 43.2022C77.4224 43.3277 77.3963 43.4831 77.4271 43.6468C77.4536 43.7872 77.5187 43.9179 77.6289 44.0361L77.7461 46.7511L77.7461 46.7516C77.7531 46.907 77.7529 46.9911 77.7322 47.0475C77.725 47.0668 77.7172 47.0765 77.7073 47.0843C77.6969 47.0925 77.673 47.1071 77.6223 47.1185C77.5125 47.1215 77.3964 47.1435 77.289 47.2029C77.2183 47.242 77.1576 47.294 77.1078 47.3574C76.9265 47.363 76.7577 47.4067 76.5979 47.4697L76.5977 47.4698C76.0545 47.6845 75.5116 47.8996 74.9688 48.1146C73.1173 48.8481 71.2667 49.5813 69.4099 50.2993C68.8326 50.5224 68.265 50.7555 67.7002 50.9874C66.932 51.3029 66.1689 51.6162 65.3935 51.8995C66.6201 50.8027 67.4191 49.4167 67.9901 47.8858L67.9903 47.8854C68.0472 47.7317 68.0958 47.5539 68.0449 47.3764C67.991 47.1885 67.8469 47.0672 67.6858 46.9743L67.5613 47.1903L67.6865 46.9747C65.145 45.499 62.6067 44.0185 60.0812 42.5204L60.081 42.5203C59.9041 42.4156 59.7232 42.3541 59.5311 42.3848C59.3449 42.4145 59.1976 42.5237 59.0717 42.6413L59.0716 42.6414C58.5 43.1758 58.0921 43.8181 57.7036 44.4438C57.5672 44.663 57.4551 44.9028 57.3507 45.1261C57.3171 45.1978 57.2844 45.2678 57.2519 45.3349C57.1132 45.6213 56.9709 45.8746 56.7692 46.0829L56.7687 46.0834C55.8585 47.0292 55.6422 48.3056 55.8587 49.4305C56.0735 50.5468 56.7263 51.5694 57.6275 51.9917L57.6281 51.992C57.8678 52.1036 58.0978 52.244 58.3361 52.396C58.3807 52.4245 58.4258 52.4535 58.4714 52.4828C58.6647 52.6072 58.8658 52.7365 59.0723 52.8519C59.2414 52.9465 59.4061 53.0551 59.58 53.1698C59.5985 53.182 59.6171 53.1942 59.6358 53.2065C59.827 53.3323 60.0294 53.4634 60.2429 53.5731C60.3888 53.6481 60.5416 53.7139 60.7027 53.763C59.9977 54.0712 59.2682 54.3256 58.5286 54.5834C58.3182 54.6567 58.107 54.7304 57.8954 54.8056L57.8946 54.8059C57.8057 54.8378 57.694 54.8497 57.5593 54.8457C57.4274 54.8418 57.2907 54.8236 57.1479 54.8047L57.1393 54.8035C57.1392 54.8035 57.1391 54.8035 57.139 54.8035C56.3698 54.6994 55.5956 54.6073 54.8117 54.5612L54.8115 54.5612C54.2745 54.5299 53.7788 54.4132 53.3275 54.1222C50.7379 52.4464 48.1466 50.7747 45.5297 49.1432L45.5294 49.143C45.3831 49.0521 45.2397 48.9513 45.0914 48.8453C45.0696 48.8297 45.0477 48.814 45.0256 48.7982C44.8994 48.7077 44.7688 48.6141 44.6355 48.5256C44.3396 48.3292 44.0133 48.1459 43.6325 48.0461C42.7997 47.3304 41.8851 46.7392 40.8747 46.2952C40.0487 45.5776 39.1378 44.9888 38.1376 44.5411C37.965 44.2492 37.6828 44.1479 37.4344 44.1001C37.4237 44.0921 37.4132 44.0843 37.4028 44.0766C37.3754 44.0562 37.3493 44.0368 37.3241 44.0175L37.2763 43.9811L37.2262 43.972L37.1792 43.9355L37.1109 43.8823L37.111 43.8822L37.1027 43.8762L37.1015 43.8754C37.049 43.8379 36.9941 43.7987 36.9362 43.7592L36.8974 43.7327L36.8618 43.7245C36.8311 43.6994 36.8002 43.6726 36.7676 43.6443L36.754 43.6325L36.7421 43.6222L36.729 43.6135L36.7264 43.6117C36.7058 43.5965 36.6849 43.5805 36.6622 43.5632L36.6616 43.5628C36.638 43.5448 36.6125 43.5253 36.5867 43.5063L36.5534 43.4818L36.514 43.4693C36.231 43.3794 36.0399 43.2548 35.9058 43.1137C35.7713 42.9722 35.6827 42.8022 35.6225 42.6051C35.5616 42.4057 35.5312 42.1839 35.5106 41.9422C35.5026 41.8488 35.4957 41.7452 35.4886 41.6389C35.4787 41.4898 35.4684 41.3355 35.4543 41.1964L77.6525 42.6155ZM34.3253 29.7878L34.3463 30.0024C34.7115 33.7333 35.0768 37.4661 35.4543 41.1963L34.3253 29.7878ZM34.3253 29.7878C34.3253 29.7877 34.3253 29.7877 34.3253 29.7877C33.9692 26.1359 33.6157 22.4866 33.2621 18.8373M34.3253 29.7878L33.2621 18.8373M33.2621 18.8373C33.2638 18.8216 33.2655 18.8059 33.2672 18.7903C33.35 18.8239 33.4275 18.8579 33.5067 18.9018C34.3165 19.3553 35.1264 19.8115 35.9367 20.2679C37.0869 20.9158 38.2378 21.5641 39.3901 22.2055L39.5117 21.9871L39.3901 22.2055C43.1191 24.2814 46.8511 26.3551 50.5935 28.406L50.5935 28.4061C50.6828 28.4549 50.7713 28.5123 50.8668 28.5757C50.8819 28.5857 50.8971 28.5959 50.9126 28.6063C50.9928 28.6598 51.0786 28.717 51.1662 28.77C51.3771 28.8976 51.6237 29.017 51.9218 29.0434L33.2621 18.8373ZM67.2557 42.813L67.8885 43.1241L67.593 42.4838C66.9274 41.0423 65.4043 40.1517 63.9583 40.4214L63.3117 40.542L63.8752 40.8814C64.0487 40.9859 64.2204 41.09 64.3913 41.1936C65.3243 41.7594 66.2312 42.3094 67.2557 42.813Z" fill="white" fill-opacity="0.15" stroke="white" stroke-width="0.5"/>
<path d="M77.251 47.6059C77.3269 47.4312 77.4712 47.3705 77.651 47.3679C77.5573 47.5122 77.4282 47.6008 77.251 47.6059Z" fill="#A55F2F"/>
<path d="M36.5898 43.8186C36.6305 43.8517 36.6712 43.8873 36.7094 43.9203C36.6687 43.8873 36.628 43.8517 36.5898 43.8186Z" fill="#A55F2F"/>
<path d="M36.7949 43.9658C36.8481 44.0038 36.9012 44.0418 36.9569 44.0797C36.9038 44.0418 36.8506 44.0038 36.7949 43.9658Z" fill="#A55F2F"/>
<path d="M74.4344 18.6364C74.3994 18.6125 74.3632 18.5864 74.3303 18.5627C74.3101 18.5481 74.2912 18.5345 74.2746 18.5228C74.2182 18.4831 74.1701 18.4522 74.1233 18.4293L74.2334 18.2048L74.124 18.4296C71.6295 17.2163 69.135 16.0037 66.6404 14.7912C62.8998 12.973 59.1591 11.1547 55.4186 9.33381L55.4179 9.33349C55.2172 9.23508 55.0429 9.22553 54.8164 9.2949L54.8154 9.29522C49.8391 10.7959 44.8613 12.2906 39.8845 13.785C38.3799 14.2368 36.8753 14.6885 35.371 15.1404C35.3603 15.1437 35.3499 15.1468 35.3396 15.1499C35.139 15.2107 35.0157 15.2481 34.9145 15.3477L34.9133 15.3489L34.9133 15.3489C34.0491 16.1879 33.3138 16.9843 33.2513 18.1662L33.2701 18.2532C33.2868 18.2599 33.3039 18.2667 33.3213 18.2737C33.4598 18.3287 33.6188 18.3919 33.7543 18.4672L33.755 18.4676C34.5676 18.9227 35.3783 19.3793 36.1888 19.8358C37.3376 20.4829 38.4857 21.1296 39.6377 21.771C43.3667 23.8468 47.0949 25.9197 50.8382 27.9698L50.8382 27.9698C50.9476 28.0297 51.0515 28.0973 51.1482 28.1615C51.1646 28.1724 51.1808 28.1831 51.1968 28.1938C51.2773 28.2473 51.3527 28.2975 51.4303 28.3444C51.6142 28.4555 51.784 28.531 51.9706 28.5476C52.9923 28.6387 54.0168 28.7247 55.039 28.8082C55.0392 28.8082 55.0393 28.8082 55.0395 28.8082L55.0191 29.0574C55.1222 29.0654 55.2236 29.0798 55.3245 29.0942C55.6079 29.1346 55.8883 29.1746 56.1963 29.07L74.4344 18.6364ZM74.4344 18.6364C74.4472 18.6503 74.4604 18.6647 74.4742 18.6798L74.4749 18.6806C74.4947 18.7023 74.5159 18.7255 74.5374 18.7482L74.5373 18.7483L74.5426 18.7537L74.6072 18.8182L74.6294 18.8405C75.0924 19.9626 75.7348 20.9743 76.4684 21.9216C75.484 22.2572 74.4999 22.5933 73.5159 22.9292C71.1216 23.7468 68.7282 24.564 66.3333 25.3752L66.3332 25.3752C65.0769 25.8012 63.819 26.2249 62.5607 26.6487C60.4108 27.3729 58.2601 28.0973 56.1152 28.8336L74.4344 18.6364ZM54.7432 9.05587L54.7433 9.05607L54.7432 9.05587Z" fill="white" fill-opacity="0.15" stroke="white" stroke-width="0.5"/>
<path d="M59.1993 52.6286C59.3769 52.7279 59.5494 52.8417 59.722 52.9555C60.3149 53.3464 60.9092 53.7383 61.7131 53.55C62.3705 53.392 62.9832 53.1192 63.5957 52.8466C63.8465 52.735 64.0972 52.6234 64.351 52.5197M59.1993 52.6286L64.6876 52.1527C64.6654 52.1694 64.6423 52.1856 64.6191 52.2018C64.5054 52.2817 64.3892 52.3632 64.3535 52.5147L64.351 52.5197M59.1993 52.6286C58.9992 52.5167 58.8053 52.3924 58.6114 52.268M59.1993 52.6286L58.6114 52.268M64.351 52.5197L64.3484 52.5135L64.3477 52.5118L64.2564 52.2883C64.2225 52.3021 64.1888 52.3161 64.1552 52.3301M64.351 52.5197L64.3295 52.509L64.1102 52.4572C64.1212 52.4107 64.1366 52.3685 64.1552 52.3301M64.1552 52.3301C63.9216 52.4275 63.6951 52.5283 63.4719 52.6277C62.8688 52.8962 62.289 53.1544 61.6554 53.3068C61.2129 53.4102 60.8435 53.3118 60.4765 53.1233C60.2897 53.0273 60.1075 52.9099 59.9157 52.7837C59.897 52.7714 59.8781 52.7589 59.8591 52.7464C59.6877 52.6334 59.5074 52.5145 59.3214 52.4104L59.3213 52.4104C59.1284 52.3025 58.9424 52.1833 58.749 52.0593C58.7031 52.0298 58.6568 52.0001 58.6099 51.9702C58.3691 51.817 58.1161 51.6615 57.845 51.534L57.8447 51.5339C57.1307 51.1993 56.5494 50.3423 56.3548 49.3309C56.1618 48.3279 56.3607 47.2286 57.134 46.4251L64.1552 52.3301ZM64.1552 52.3301C64.1991 52.2395 64.2602 52.1703 64.3204 52.1163C64.3725 52.0695 64.4441 52.0191 64.494 51.9839C64.512 51.9712 64.5272 51.9605 64.5377 51.9527L64.5382 51.9522C65.9891 50.8708 66.8945 49.4009 67.5267 47.706L67.5267 47.7058C67.5784 47.5676 67.5728 47.5233 67.5693 47.511L67.5693 47.5109C67.5683 47.5072 67.5582 47.471 67.44 47.4018C64.8981 45.9283 62.3585 44.4445 59.8313 42.9454C59.7046 42.8704 59.645 42.8686 59.615 42.8734C59.579 42.8792 59.5226 42.904 59.4183 43.0014C58.9011 43.4875 58.524 44.0734 58.1333 44.7026L58.1327 44.7035C58.0114 44.8971 57.916 45.1006 57.8134 45.3194C57.7785 45.3937 57.7429 45.4697 57.7051 45.5477C57.5611 45.8451 57.3915 46.1575 57.134 46.425L64.1552 52.3301ZM58.6114 52.268C58.3271 52.0856 58.0427 51.9033 57.7386 51.7603L58.6114 52.268Z" stroke="white" stroke-width="0.5"/>
</svg>
