<svg width="75" height="80" viewBox="0 0 75 80" fill="none" xmlns="http://www.w3.org/2000/svg">
<g id="Layer_1" clip-path="url(#clip0_209_703)">
<path id="Vector" d="M74.2262 56.5299L74.0301 56.4864C74.0238 56.2584 74.018 56.0311 74.0122 55.8045C73.9949 55.1239 73.9777 54.4488 73.9463 53.7747L73.9462 53.7712C73.6142 46.8844 73.2823 39.9982 72.9294 33.1122V33.1121C72.8092 30.7535 72.6668 28.3982 72.5243 26.0402C72.463 25.0267 72.4017 24.0126 72.3421 22.9976C71.4764 23.293 70.6106 23.5884 69.7447 23.8839C65.0579 25.4834 60.3683 27.0837 55.6788 28.6756L55.6786 28.6757C53.5899 29.3839 51.5003 30.0877 49.4111 30.7914C45.8437 31.993 42.2775 33.1943 38.7182 34.416C38.3004 34.5602 37.9129 34.5669 37.5605 34.5357C37.3917 34.5208 37.2259 34.4966 37.0725 34.4742L37.0593 34.4723C36.8984 34.4488 36.7503 34.4275 36.6022 34.415C36.1614 34.3779 35.7201 34.3411 35.2785 34.3042C34.0207 34.1993 32.7604 34.0941 31.5028 33.982C31.0121 33.9386 30.6056 33.7421 30.2565 33.5308C30.1115 33.4431 29.9695 33.3483 29.8363 33.2595C29.8106 33.2423 29.7852 33.2254 29.7603 33.2088C29.6017 33.1034 29.4541 33.0078 29.3052 32.9263L29.3051 32.9262C23.0923 29.5214 16.8967 26.0789 10.7061 22.6327L10.8986 22.287L10.7061 22.6327C8.79317 21.5678 6.88264 20.4916 4.97323 19.4161C3.62806 18.6584 2.28345 17.901 0.938928 17.1481C0.799397 17.0706 0.662596 17.0115 0.515447 16.9523C0.511728 16.9874 0.507925 17.0225 0.504023 17.0577C1.09106 23.1168 1.67809 29.1757 2.26931 35.2388C2.26931 35.2388 2.26932 35.2389 2.26932 35.2389L2.3042 35.5953C2.91037 41.789 3.51685 47.9859 4.14354 54.1786C4.167 54.4096 4.18399 54.6648 4.20043 54.9118C4.21218 55.0883 4.22364 55.2605 4.23698 55.4166C4.2713 55.8182 4.32183 56.1881 4.42355 56.5211C4.52414 56.8505 4.67243 57.1356 4.89832 57.3732C5.12353 57.61 5.44375 57.8185 5.91626 57.9685L5.97862 57.9883L6.03129 58.0271C6.07386 58.0584 6.11596 58.0906 6.15504 58.1204L6.15639 58.1214C6.19412 58.1502 6.22913 58.1769 6.26357 58.2024L6.26825 58.2055L6.28901 58.2194L6.30787 58.2357L6.33034 58.2552C6.38564 58.3032 6.43832 58.3489 6.49074 58.3916L6.55059 58.4055L6.61204 58.4474C6.70798 58.5128 6.7991 58.5779 6.88628 58.6401L6.88809 58.6414L6.89466 58.6461L6.90104 58.6511L7.09622 58.8029L7.17957 58.818L7.25513 58.8756C7.29718 58.9076 7.34055 58.9399 7.38604 58.9738L7.38692 58.9744C7.40499 58.9879 7.42338 59.0016 7.44194 59.0154C7.85475 59.0943 8.32076 59.2612 8.60383 59.7446C10.2656 60.4876 11.7789 61.4656 13.1509 62.658C14.8287 63.395 16.3476 64.3767 17.7304 65.5657C18.3615 65.7303 18.9024 66.034 19.394 66.3603C19.615 66.507 19.8315 66.6622 20.0411 66.8124C20.0777 66.8386 20.1142 66.8647 20.1504 66.8906C20.3966 67.0667 20.635 67.2343 20.8785 67.3856L20.879 67.3859C25.2233 70.0943 29.525 72.8696 33.8241 75.6516M74.2262 56.5299L33.6096 75.9841M74.2262 56.5299L74.0518 56.5837C74.0806 56.6773 74.0802 56.7908 74.0479 56.952C74.0318 57.0322 74.0096 57.1161 73.9835 57.2109C73.9794 57.2257 73.9752 57.2409 73.9709 57.2564C73.9488 57.336 73.9244 57.4239 73.9036 57.5111C73.8542 57.7186 73.8115 57.9734 73.8619 58.2412C73.9055 58.4725 74.0133 58.688 74.1969 58.883C74.2618 60.3853 74.3268 61.8913 74.3918 63.3974L74.3918 63.3982C74.4034 63.6551 74.4036 63.799 74.3675 63.897C74.3546 63.932 74.3397 63.9512 74.3201 63.9666C74.2999 63.9825 74.2569 64.0081 74.1694 64.0275C73.9886 64.0322 73.7984 64.0682 73.6231 64.1652C73.5054 64.2304 73.4047 64.3173 73.3225 64.424C73.0209 64.432 72.7399 64.5042 72.4734 64.6093L72.473 64.6094C71.5715 64.9658 70.6704 65.3228 69.7694 65.6797C66.6956 66.8975 63.6231 68.1147 60.5403 69.3069C59.5827 69.6769 58.6409 70.0637 57.7034 70.4486C56.3963 70.9854 55.0977 71.5186 53.7768 71.9982C55.8532 70.1695 57.1992 67.8463 58.1581 65.2753L58.1584 65.2746C58.2528 65.02 58.3313 64.73 58.2487 64.4418C58.1614 64.1373 57.9277 63.9393 57.6621 63.786M74.2262 56.5299L57.7874 65.1371C57.9681 64.6496 57.9303 64.3974 57.4638 64.1284M33.8241 75.6516C33.8243 75.6517 33.8244 75.6518 33.8246 75.6519L33.6096 75.9841M33.8241 75.6516C33.8241 75.6516 33.8241 75.6515 33.824 75.6515L33.6096 75.9841M33.8241 75.6516C34.577 76.1369 35.4035 76.3313 36.2971 76.3834L36.2973 76.3834C37.5979 76.4599 38.8824 76.6127 40.159 76.7854M33.6096 75.9841C34.4375 76.5178 35.3369 76.7237 36.2741 76.7784C37.5601 76.854 38.8335 77.0053 40.1069 77.1776M40.159 76.7854L40.1069 77.1776M40.159 76.7854L40.16 76.7855M40.159 76.7854L40.16 76.7855M40.1069 77.1776L40.16 76.7855M40.1069 77.1776L40.1307 77.1808C40.5998 77.2431 41.1311 77.3137 41.5568 77.1608C41.903 77.0378 42.2501 76.9168 42.5972 76.7958C44.0218 76.2993 45.4475 75.8025 46.8151 75.1606C46.5781 75.1422 46.3517 75.0981 46.1345 75.0353M40.16 76.7855L41.1492 71.7226C41.6557 71.9583 42.1294 72.2629 42.6032 72.5676C42.9234 72.7735 43.2436 72.9794 43.5741 73.1641M40.16 76.7855L40.1744 76.7874C40.4113 76.8189 40.6392 76.8492 40.8593 76.8557C41.0841 76.8623 41.2722 76.8426 41.423 76.7884L41.4243 76.788C41.7754 76.6632 42.1259 76.541 42.475 76.4193C43.7197 75.9854 44.9481 75.5571 46.1345 75.0353M40.16 76.7855L41.1157 59.5782M46.1345 75.0353C46.3392 74.9453 46.5426 74.8525 46.7447 74.7564C45.8853 74.6585 45.1629 74.1823 44.4418 73.7068C44.1552 73.5178 43.8688 73.329 43.5741 73.1641M46.1345 75.0353C45.8496 74.953 45.5805 74.8383 45.3238 74.7064C44.9705 74.5249 44.6352 74.3078 44.3177 74.0989C44.2867 74.0785 44.2559 74.0582 44.2252 74.038C43.9365 73.8476 43.6623 73.6669 43.3809 73.5094M43.5741 73.1641L43.3809 73.5094M43.5741 73.1641L43.381 73.5095C43.381 73.5095 43.3809 73.5094 43.3809 73.5094M43.3809 73.5094C43.0387 73.3181 42.7057 73.104 42.3848 72.8976C42.3091 72.8489 42.2341 72.8007 42.1598 72.7533C41.7642 72.5008 41.3814 72.2671 40.9822 72.0813L40.9812 72.0809C39.4925 71.3832 38.4116 69.6919 38.0557 67.8427C37.6972 65.9801 38.0555 63.8679 39.5612 62.3033L39.562 62.3024C39.8991 61.9543 40.1365 61.5316 40.367 61.0556C40.4212 60.9438 40.4757 60.8272 40.5314 60.7079C40.7046 60.3375 40.89 59.941 41.1157 59.5782M41.1157 59.5782C41.1157 59.5783 41.1156 59.5783 41.1156 59.5784L41.4517 59.7871L41.1158 59.5781C41.1157 59.5781 41.1157 59.5782 41.1157 59.5782ZM41.1157 59.5782C41.7609 58.5393 42.4369 57.475 43.3837 56.5898L43.3838 56.5897C43.592 56.3953 43.8331 56.2171 44.1364 56.1687C44.4489 56.1189 44.7446 56.2186 45.0364 56.3913L45.0367 56.3915C49.2293 58.8784 53.4431 61.3362 57.6621 63.786M41.1157 59.5782L43.6539 56.8789C44.0364 56.5217 44.3306 56.4334 44.8349 56.7318C49.0291 59.2198 53.2444 61.6783 57.4638 64.1284M57.6621 63.786C57.6619 63.7859 57.6617 63.7858 57.6614 63.7857L57.4638 64.1284M57.6621 63.786C57.6622 63.7861 57.6624 63.7862 57.6625 63.7863L57.4638 64.1284M19.8096 67.1333C19.4042 66.8428 18.9979 66.5516 18.5588 66.3186L20.6697 67.7217C20.3762 67.5393 20.0931 67.3365 19.8096 67.1333ZM17.4864 65.8778C16.3421 64.892 15.1048 64.0529 13.7606 63.381L17.5387 65.868V65.5273H17.5261L17.4864 65.8778ZM12.8441 62.9157C11.6322 61.8694 10.3094 60.9943 8.87032 60.3041L12.9242 62.9562V62.5896H12.9116L12.8441 62.9157ZM8.24522 59.9165C8.03623 59.585 7.6984 59.4624 7.32536 59.3963L8.31395 60.0146V59.6478H8.30134L8.24522 59.9165ZM7.22628 59.3482C7.20092 59.3292 7.17537 59.3102 7.14982 59.2912C7.10464 59.2576 7.05946 59.224 7.01534 59.1903C6.96911 59.1819 6.92288 59.1651 6.88506 59.1399L7.22628 59.3482ZM7.08587 58.801C7.08592 58.801 7.086 58.801 7.08611 58.801L7.08587 58.801ZM52.854 72.74C52.6137 72.8207 52.3727 72.8991 52.1306 72.975C52.1909 72.7199 52.3856 72.5842 52.5787 72.4497C52.6101 72.4278 52.6415 72.406 52.6722 72.3837L52.854 72.74ZM6.49523 58.3953C6.49646 58.396 6.4959 58.3958 6.49344 58.3939L6.49319 58.3942L6.49523 58.3953ZM6.24625 58.7028L6.46885 58.4289L6.49577 58.3957L6.24625 58.7028ZM56.9656 56.8431L57.9673 57.3355L57.4994 56.3222C56.3977 53.9358 53.8771 52.4633 51.4865 52.9093L50.4632 53.1002L51.355 53.6372C51.6431 53.8107 51.9283 53.9837 52.212 54.1557C53.7609 55.095 55.2657 56.0075 56.9656 56.8431Z" fill="white" fill-opacity="0.15" stroke="white" stroke-width="0.791359"/>
<path id="Vector_2" d="M73.5515 64.8175C73.6776 64.5276 73.9171 64.4267 74.2155 64.4225C74.06 64.662 73.8457 64.8091 73.5515 64.8175Z" fill="#A55F2F"/>
<path id="Vector_3" d="M6.04883 58.5304C6.11638 58.5853 6.18394 58.6444 6.24727 58.6993C6.17972 58.6444 6.11216 58.5853 6.04883 58.5304Z" fill="#A55F2F"/>
<path id="Vector_4" d="M6.38916 58.7743C6.47742 58.8373 6.56567 58.9004 6.65813 58.9634C6.56987 58.9004 6.48162 58.8373 6.38916 58.7743Z" fill="#A55F2F"/>
<path id="Vector_5" d="M68.7147 16.5868C68.7696 16.6264 68.83 16.6699 68.8883 16.7099C68.9102 16.7335 68.9325 16.7579 68.9559 16.7835L68.957 16.7847C68.99 16.8208 69.0252 16.8592 69.0607 16.897L69.0606 16.8971L69.069 16.9056L69.2158 17.0524C69.9872 18.9231 71.0593 20.6091 72.2842 22.1879C70.6415 22.7481 68.9992 23.3088 67.3571 23.8695C63.3823 25.2267 59.4088 26.5835 55.433 27.9302L55.4329 27.9302C53.3474 28.6373 51.2591 29.3407 49.1705 30.0442C45.6014 31.2464 42.031 32.449 38.4703 33.6713C38.1947 33.7647 37.9296 33.7739 37.6401 33.7482C37.4989 33.7357 37.3577 33.7156 37.2035 33.6936L37.1823 33.6906C37.0238 33.6681 36.852 33.644 36.6751 33.6303C34.9781 33.4916 33.2774 33.3489 31.5812 33.1977L31.5812 33.1977C31.2671 33.1698 30.9823 33.0427 30.6759 32.8576C30.5468 32.7796 30.4211 32.696 30.2874 32.607C30.2609 32.5894 30.2341 32.5715 30.2069 32.5535C30.0465 32.4471 29.8745 32.3352 29.6937 32.2362L29.6937 32.2362C23.4793 28.8328 17.2899 25.3914 11.0994 21.9452C9.18693 20.8805 7.2807 19.8068 5.37357 18.7326C4.02812 17.9747 2.68222 17.2166 1.33335 16.4613L1.33217 16.4606C1.10836 16.3363 0.84668 16.2322 0.617377 16.141C0.584537 16.128 0.55236 16.1152 0.521055 16.1026C0.520801 16.1015 0.520546 16.1003 0.520292 16.0991L0.520247 16.0989C0.509255 16.0479 0.498173 15.9964 0.48706 15.9453C0.590488 13.9736 1.81715 12.6461 3.25219 11.2529L3.25219 11.2529L3.25411 11.2511C3.42562 11.0823 3.63477 11.0189 3.96559 10.9188C3.98327 10.9134 4.00129 10.9079 4.01968 10.9024C6.51735 10.1521 9.01529 9.40202 11.5134 8.65192C19.7754 6.17106 28.039 3.68973 36.3 1.19851L36.3017 1.198C36.6819 1.08155 36.9764 1.09744 37.3144 1.26319L37.3154 1.26369C43.5255 4.28679 49.7358 7.30544 55.9459 10.324C60.087 12.3369 64.2279 14.3497 68.3687 16.3638C68.4474 16.4024 68.5279 16.4543 68.6215 16.5202C68.6494 16.5398 68.681 16.5626 68.7147 16.5868Z" fill="white" fill-opacity="0.15" stroke="white" stroke-width="0.791359"/>
<path id="Vector_6" d="M43.5826 73.1557C43.8773 73.3206 44.1637 73.5094 44.4503 73.6984C45.4346 74.3474 46.4213 74.9979 47.7558 74.6854C48.8471 74.423 49.8644 73.9703 50.8811 73.5177C51.2975 73.3324 51.7137 73.1471 52.1349 72.975M43.5826 73.1557L57.7959 65.1286C56.7284 67.9906 55.1861 70.508 52.6939 72.3656C52.6569 72.3933 52.6186 72.4202 52.5802 72.4472C52.3913 72.5798 52.1985 72.7152 52.1392 72.9665L52.1349 72.975M43.5826 73.1557C43.2503 72.97 42.9285 72.7635 42.6066 72.5571M43.5826 73.1557L42.6066 72.5571M52.1349 72.975L52.1307 72.9646L52.1295 72.9618L51.9853 72.6087C51.9314 72.6307 51.8777 72.6529 51.8242 72.6751M52.1349 72.975L52.0993 72.9571L51.7541 72.8756C51.7713 72.8025 51.7954 72.7359 51.8242 72.6751M51.8242 72.6751C51.4351 72.8373 51.0576 73.0054 50.6851 73.1712C49.6832 73.6173 48.7182 74.0469 47.6644 74.3004C46.924 74.4735 46.3059 74.3085 45.694 73.9941C45.3828 73.8342 45.0796 73.6389 44.7613 73.4294C44.7301 73.4089 44.6988 73.3883 44.6674 73.3675C44.3826 73.1797 44.0839 72.9827 43.7758 72.8104L43.7756 72.8103C43.4549 72.631 43.1455 72.4326 42.8244 72.2267C42.7482 72.1779 42.6714 72.1286 42.5937 72.0791C42.1941 71.8247 41.7748 71.5672 41.3261 71.3561L41.3256 71.3559C40.133 70.797 39.1652 69.3678 38.8413 67.6847C38.52 66.015 38.8509 64.1831 40.1399 62.8437L51.8242 72.6751ZM51.8242 72.6751C51.8959 72.5243 51.9971 72.4093 52.0971 72.3196C52.1826 72.2428 52.2992 72.1607 52.382 72.1024C52.4125 72.0809 52.4384 72.0626 52.4565 72.049L52.4574 72.0483C54.87 70.2501 56.3749 67.8064 57.4252 64.9904L57.4253 64.9901C57.5113 64.76 57.5041 64.6813 57.4964 64.6546C57.4931 64.6429 57.4736 64.5794 57.2731 64.4619C53.0532 62.0157 48.8371 59.5524 44.6417 57.0638M51.8242 72.6751L43.6624 56.8704M44.6417 57.0638C44.6416 57.0638 44.6416 57.0637 44.6415 57.0637L44.8434 56.7234L44.6419 57.0639C44.6418 57.0639 44.6418 57.0638 44.6417 57.0638ZM44.6417 57.0638C44.4293 56.9381 44.3257 56.9328 44.2695 56.9418C44.2041 56.9522 44.1069 56.9968 43.9329 57.1592M43.9329 57.1592C43.9331 57.1591 43.9332 57.1589 43.9334 57.1588L43.6624 56.8704M43.9329 57.1592C43.0721 57.9681 42.445 58.9429 41.7964 59.9874L41.7955 59.9888C41.5935 60.3112 41.4343 60.6506 41.2638 61.0142C41.2061 61.1373 41.147 61.2632 41.0846 61.3921C40.8457 61.8854 40.5653 62.4018 40.1399 62.8436L43.6624 56.8704M43.9329 57.1592C43.9328 57.1593 43.9327 57.1595 43.9325 57.1596L43.6624 56.8704M42.6066 72.5571C42.1345 72.2543 41.6624 71.9516 41.1577 71.7142L42.6066 72.5571Z" stroke="white" stroke-width="0.791359"/>
</g>
<defs>
<clipPath id="clip0_209_703">
<rect width="74.7103" height="78.5515" fill="white" transform="translate(0.0893555 0.727417)"/>
</clipPath>
</defs>
</svg>
