<svg width="110" height="65" viewBox="0 0 110 65" fill="none" xmlns="http://www.w3.org/2000/svg">
<path d="M39.9597 19.957C38.7768 21.6348 37.8478 23.4451 37.0259 25.3188C36.8079 26.0655 36.5895 26.8117 36.3711 27.558C36.0931 28.5081 35.8151 29.4582 35.5376 30.4096C35.2933 33.3405 35.1109 36.1945 35.9991 39.003C36.9992 42.1617 38.7976 44.5952 42.0618 45.9944C44.1611 46.8942 46.2435 47.8471 48.3216 48.798C49.6893 49.4239 51.0552 50.0488 52.4226 50.6572L52.2899 50.9555L52.4226 50.6572C54.8187 51.7235 57.1379 52.54 59.7928 51.8101L59.793 51.8101C63.2306 50.8667 66.0198 48.9962 68.1214 46.407C73.2538 40.0815 75.7954 33.0308 74.18 25.0484C73.4818 21.5978 71.8741 18.6446 68.2207 17.283C63.5592 15.5466 58.818 14.0011 54.022 12.635L39.9597 19.957ZM39.9597 19.957H39.9653L40.0658 19.8112C42.1666 16.7629 44.8237 14.3577 48.4401 12.9929C50.2845 12.2985 52.1992 12.1168 54.0219 12.635L39.9597 19.957ZM69.4508 31.3993H69.4371C69.2171 36.6227 66.9277 40.9244 62.5116 44.1521C59.7436 46.1766 56.2881 46.1957 54.0607 44.2062C52.4727 42.788 51.736 40.9248 51.6125 38.9766L51.6125 38.9766C51.227 32.8934 53.2443 27.6474 58.5789 23.9117C60.7374 22.4001 63.1019 22.1166 65.0818 22.8655C67.0616 23.6144 68.6133 25.3794 69.1773 27.8749C69.1895 27.928 69.202 27.9818 69.2147 28.0362C69.3072 28.4329 69.4073 28.8627 69.4399 29.295M69.4508 31.3993L69.4399 29.295M69.4508 31.3993V31.0624M69.4508 31.3993V31.0624M69.4399 29.295C69.4722 29.7143 69.4644 30.1447 69.457 30.556M69.4399 29.295L69.457 30.556M69.4508 31.0624C69.4508 30.8985 69.4539 30.7289 69.457 30.556M69.4508 31.0624L69.457 30.556" stroke="white" stroke-width="0.673816"/>
<path d="M69.1143 31.0621C68.978 36.328 66.7407 40.6457 62.3156 43.8799C59.6496 45.8298 56.3742 45.8158 54.288 43.9546C52.7766 42.6049 52.0705 40.8302 51.9515 38.955C51.5725 32.9746 53.5496 27.8466 58.775 24.1874C62.9276 21.2778 67.7689 23.1576 68.8516 27.9494C68.9532 28.4024 69.0721 28.8601 69.1068 29.3201C69.1514 29.8969 69.1167 30.4807 69.1167 31.0621H69.1143ZM59.7363 25.6772C59.8999 25.6002 60.0659 25.5231 60.2294 25.4461C62.1273 25.1962 63.8369 25.4577 65.0633 27.0316C65.4721 27.557 66.0222 27.4683 66.4805 27.1624C67.0801 26.7608 66.5078 26.3895 66.2947 26.0952C64.9592 24.2575 62.0306 23.9632 60.2368 25.4554C60.0733 25.5325 59.9073 25.6095 59.7438 25.6866L59.5926 25.745L59.7363 25.6772ZM67.8655 33.2175C67.7094 32.6174 68.2347 31.8981 67.1941 31.7533C66.1733 31.6109 66.2402 32.2974 66.0791 32.8859C65.1401 36.3139 63.7774 39.4944 60.3087 41.4023C59.9767 41.5844 59.8156 41.7852 59.994 42.1495C60.1947 42.5582 60.4251 42.9318 60.995 42.8034C61.5525 42.6773 62.0901 42.4858 62.5559 42.1542C65.757 39.8844 67.3725 36.7973 67.863 33.2198L67.8655 33.2175Z" fill="white" fill-opacity="0.15"/>
<path d="M67.8656 33.2178C67.375 36.7953 65.7596 39.8824 62.5585 42.1522C62.0902 42.4838 61.555 42.6753 60.9975 42.8014C60.4302 42.9298 60.1973 42.5562 59.9966 42.1475C59.8182 41.7832 59.9792 41.5824 60.3112 41.4003C63.7775 39.4901 65.1427 36.3119 66.0817 32.8839C66.2427 32.2978 66.1759 31.6112 67.1966 31.7513C68.2373 31.8961 67.7145 32.6153 67.8681 33.2155L67.8656 33.2178Z" fill="white"/>
<path d="M60.2389 25.4531C62.0302 23.9609 64.9613 24.2551 66.2968 26.0929C66.5098 26.3871 67.0846 26.7607 66.4826 27.1601C66.0242 27.466 65.4742 27.5547 65.0654 27.0293C63.8364 25.4554 62.1293 25.1938 60.2314 25.4437L60.2389 25.4531Z" fill="white"/>
</svg>
