<svg width="101" height="100" viewBox="0 0 101 100" fill="none" xmlns="http://www.w3.org/2000/svg">
<g clip-path="url(#clip0_455_1578)">
<circle cx="50.5" cy="50" r="47.5" stroke="#32D74B" stroke-width="5"/>
<path d="M47.0352 67.6133C45.8242 67.6133 44.8151 67.1315 44.0078 66.168L33.9297 53.9609C33.5781 53.5573 33.3307 53.1667 33.1875 52.7891C33.0443 52.4115 32.9727 52.0208 32.9727 51.6172C32.9727 50.6927 33.2786 49.931 33.8906 49.332C34.5156 48.7201 35.2969 48.4141 36.2344 48.4141C37.276 48.4141 38.1419 48.8372 38.832 49.6836L46.957 59.7422L62.9141 34.5273C63.3177 33.9154 63.7344 33.4857 64.1641 33.2383C64.6068 32.9779 65.1471 32.8477 65.7852 32.8477C66.7227 32.8477 67.4974 33.1471 68.1094 33.7461C68.7214 34.3451 69.0273 35.1003 69.0273 36.0117C69.0273 36.3503 68.9688 36.7018 68.8516 37.0664C68.7344 37.431 68.5521 37.8086 68.3047 38.1992L50.1211 66.0312C49.4049 67.0859 48.3763 67.6133 47.0352 67.6133Z" fill="#32D74B"/>
</g>
<defs>
<clipPath id="clip0_455_1578">
<rect width="100" height="100" fill="white" transform="translate(0.5)"/>
</clipPath>
</defs>
</svg>
