<svg width="103" height="65" viewBox="0 0 103 65" fill="none" xmlns="http://www.w3.org/2000/svg">
<g id="Image" clip-path="url(#clip0_209_654)">
<path id="Vector" d="M97.2178 43.2211H97.2049C96.9964 48.4997 94.82 52.8522 90.6105 56.1215C87.9667 58.1761 84.6573 58.1976 82.5268 56.1755C81.0135 54.7394 80.3146 52.8566 80.1973 50.8916C79.8308 44.7457 81.7471 39.4398 86.8308 35.6568C88.8911 34.1237 91.155 33.8325 93.053 34.5954C94.9481 35.3571 96.4227 37.147 96.9579 39.6639M97.2178 43.2211L97.2075 41.0974M97.2178 43.2211V42.8842M97.2178 43.2211V42.8842M96.9579 39.6639C96.9579 39.664 96.9579 39.664 96.9579 39.664L96.6284 39.7341M96.9579 39.6639C96.9578 39.6636 96.9578 39.6633 96.9577 39.6629L96.6284 39.7341M96.9579 39.6639C96.9695 39.7176 96.9814 39.772 96.9935 39.827C97.0816 40.2286 97.1766 40.6618 97.2075 41.0974M96.6284 39.7341C95.5973 34.885 90.989 32.9826 87.0319 35.9271C82.0556 39.6301 80.1726 44.8172 80.5336 50.8716M96.6284 39.7341L80.5336 50.8716M97.2075 41.0974C97.2381 41.5205 97.2308 41.9542 97.2237 42.37M97.2075 41.0974L97.2237 42.37M80.5336 50.8716C80.6469 52.7692 81.3194 54.5652 82.7587 55.9311C84.7455 57.8169 87.8649 57.8287 90.4038 55.8554L80.5336 50.8716ZM97.2178 42.8842C97.2178 42.7174 97.2207 42.5453 97.2237 42.37M97.2178 42.8842L97.2237 42.37M66.3391 37.0644C67.1213 35.1696 68.0052 33.3387 69.1304 31.6417H69.1358L69.2354 31.4881C71.2371 28.4018 73.7665 25.9707 77.2043 24.592C78.956 23.8912 80.7713 23.7089 82.4985 24.2307C87.0652 25.6129 91.5796 27.1766 96.0183 28.9335C99.4879 30.3076 101.022 33.2927 101.689 36.7936L102.02 36.7306L101.689 36.7936C103.229 44.881 100.805 52.0219 95.917 58.4229C93.9154 61.0433 91.2616 62.9331 87.9947 63.8857L87.9946 63.8857C85.4793 64.6206 83.281 63.8 80.9986 62.7206L80.8545 63.0252L80.9985 62.7206C79.6968 62.1052 78.3963 61.4728 77.0937 60.8395C75.1144 59.8771 73.1305 58.9125 71.1311 58.0018C68.0299 56.5892 66.3154 54.1294 65.3611 50.9266C64.5137 48.0792 64.6881 45.186 64.9209 42.2194C65.1853 41.256 65.4502 40.2938 65.7152 39.3317C65.9233 38.576 66.1314 37.8204 66.3391 37.0644Z" stroke="white" stroke-width="0.673816"/>
<path id="Vector_2" d="M23.7965 25.1512C25.0027 25.57 26.1798 26.0645 27.3356 26.6143C24.5916 30.1453 21.0989 32.0479 16.5034 31.6735L16.5033 31.6734C15.2992 31.5758 14.2258 31.0433 13.1035 30.4864C12.995 30.4326 12.886 30.3785 12.7763 30.3245L12.7762 30.3244C11.9848 29.9356 11.1688 29.5743 10.3601 29.2162C9.87629 29.002 9.39507 28.7889 8.9232 28.5718C7.65052 27.986 6.41712 27.3585 5.27721 26.5604C2.80717 24.8305 1.50346 22.3776 0.994056 19.4412L0.662381 19.4988L0.994055 19.4412C0.238182 15.0844 1.19433 11.0504 3.50421 7.30951L3.50426 7.30943C5.2674 4.45218 7.66518 2.33932 10.8656 1.24328L10.8657 1.24323C12.787 0.584363 14.7691 0.583663 16.6742 1.17088L16.6744 1.17096C19.4692 2.03019 22.2191 3.04312 24.9675 4.07797C27.9776 5.21218 29.6745 7.59725 30.724 10.5787C31.2332 12.0259 31.4511 13.5346 31.3708 15.0764L31.3708 15.0769C31.3669 15.1535 31.3662 15.2381 31.3656 15.3131C31.3654 15.3471 31.3651 15.3791 31.3646 15.4075C31.3627 15.5093 31.3575 15.5924 31.3438 15.6652C31.3282 15.7475 31.3029 15.8147 31.2517 15.873C31.1114 15.8238 30.9717 15.7753 30.8325 15.7269C29.8598 15.3889 28.9151 15.0607 28.0225 14.5981C27.6998 11.9702 26.3588 9.99462 24.4747 8.98677C22.5476 7.9559 20.1017 7.964 17.7 9.24816L17.8588 9.54527L17.6999 9.24817C15.4553 10.4484 13.7493 12.6803 12.8444 15.1743C11.9396 17.6682 11.8206 20.4665 12.8053 22.8168C13.9744 25.6081 16.0664 26.8997 18.2283 27.1073C20.2921 27.3055 22.3997 26.5141 23.7965 25.1512Z" stroke="white" stroke-width="0.673816"/>
<path id="Vector_3" d="M27.5568 15.1107C27.151 14.9641 26.7304 14.826 26.3044 14.686C25.3224 14.3634 24.3119 14.0314 23.3883 13.5656L23.3881 13.5655C21.7226 12.7242 20.2569 12.9059 19.1193 13.5965C18.0606 14.2391 17.2665 15.3359 16.8769 16.5159C18.5206 16.9917 20.0981 17.67 21.6524 18.3383C22.3313 18.6303 23.0059 18.9203 23.6795 19.1907C23.6796 19.1907 23.6796 19.1908 23.6797 19.1908L23.5542 19.5034C27.7501 21.1854 31.9262 22.9152 36.1022 24.6451C37.4942 25.2217 38.8862 25.7983 40.279 26.3731L27.5568 15.1107ZM27.5568 15.1107C28.5546 15.6495 29.6234 16.0194 30.662 16.3789C30.8417 16.4411 31.0204 16.503 31.1977 16.5653C32.9108 17.2336 34.6237 17.9024 36.3366 18.5711C40.4848 20.1906 44.6331 21.8101 48.7836 23.4236L48.7836 23.4236C51.3491 24.4206 53.9153 25.4151 56.4814 26.4095C60.2606 27.874 64.0395 29.3384 67.8157 30.8107C67.9137 30.8489 68.0214 30.88 68.1119 30.9061C68.1313 30.9117 68.1499 30.9171 68.1674 30.9223C68.277 30.9545 68.3615 30.9828 68.4306 31.0181C68.4962 31.0516 68.5352 31.0853 68.5606 31.1214C68.5758 31.1431 68.5922 31.1742 68.6039 31.2213C67.4901 32.8926 66.6115 34.6797 65.842 36.5141C64.6543 36.0281 63.4667 35.5423 62.279 35.0565C59.6956 33.9997 57.1124 32.943 54.529 31.8842C51.8155 30.7711 49.1001 29.6559 46.3919 28.5337L46.3911 28.5334C46.3201 28.5041 46.2346 28.4762 46.1617 28.4524C46.142 28.446 46.1232 28.4398 46.1058 28.434C46.0126 28.4029 45.9407 28.3759 45.887 28.3472C45.8794 28.3432 45.8728 28.3394 45.8672 28.336L27.5568 15.1107Z" stroke="white" stroke-width="0.673816"/>
<path id="Vector_4" d="M16.6993 17.1677C16.4123 18.564 16.4621 19.5613 16.8483 20.3468C17.2653 21.1949 18.1105 21.8695 19.5624 22.5182L19.5625 22.5183C19.9982 22.713 20.4514 22.8973 20.9107 23.0841C21.8976 23.4855 22.9131 23.8985 23.8449 24.4513C25.2629 24.9344 26.637 25.5191 27.9782 26.1723C28.0444 26.1951 28.1166 26.2186 28.1919 26.2431C28.3728 26.3019 28.5721 26.3668 28.7522 26.4433L28.7534 26.4438C31.0832 27.4452 33.4123 28.4474 35.7413 29.4496C40.1399 31.3422 44.538 33.2347 48.9393 35.1211C52.444 36.6225 55.9505 38.1153 59.4575 39.6083C61.0925 40.3044 62.7276 41.0005 64.3626 41.6975C64.567 40.954 64.7718 40.2101 64.9765 39.4662L64.9778 39.4618C65.1898 38.6914 65.4019 37.9212 65.6135 37.1514C64.4146 36.6607 63.2156 36.1703 62.0166 35.6798C59.4333 34.6231 56.8498 33.5663 54.2664 32.5074L54.2663 32.5074C51.5526 31.3943 48.8387 30.2787 46.127 29.156L46.1257 29.1555C46.0794 29.136 46.0262 29.1185 45.9564 29.0955C45.9344 29.0883 45.9108 29.0805 45.8852 29.0719C45.79 29.04 45.6708 28.9982 45.5628 28.9406C45.4584 28.885 45.3234 28.7938 45.2414 28.6414C45.1494 28.4702 45.155 28.2818 45.2264 28.1061C45.3228 27.8676 45.3382 27.7394 45.3373 27.6825C45.2771 27.6794 45.1843 27.6941 45.0726 27.7276C44.96 27.7614 44.8603 27.8041 44.8102 27.8266L44.8093 27.827C44.1895 28.1021 43.6308 28.0657 43.1239 27.9252C42.8757 27.8565 42.6377 27.7622 42.415 27.6702C42.3704 27.6518 42.3266 27.6335 42.2834 27.6155C42.1056 27.5414 41.9381 27.4716 41.7673 27.4116C41.7673 27.4115 41.7672 27.4115 41.7672 27.4115L41.8789 27.0937C41.5587 26.9813 41.252 26.8324 40.945 26.6833C40.7226 26.5753 40.5 26.4672 40.272 26.3729L16.6993 17.1677ZM16.6993 17.1677C18.2827 17.6267 19.7843 18.2726 21.3073 18.9277C22.0044 19.2276 22.7059 19.5293 23.4219 19.816" stroke="white" stroke-width="0.673816"/>
<path id="Vector_5" d="M96.8809 42.8842C96.7512 48.2131 94.6205 52.5825 90.4062 55.8555C87.8673 57.8287 84.7479 57.8145 82.7611 55.9311C81.3218 54.5652 80.6493 52.7692 80.536 50.8716C80.175 44.8196 82.058 39.6301 87.0344 35.9271C90.989 32.9826 95.5997 34.885 96.6308 39.7341C96.7276 40.1926 96.8408 40.6557 96.8739 41.1213C96.9163 41.705 96.8833 42.2958 96.8833 42.8842H96.8809ZM87.9499 37.4348C88.1056 37.3568 88.2637 37.2788 88.4194 37.2008C90.2269 36.948 91.855 37.2127 93.023 38.8054C93.4123 39.3371 93.9362 39.2473 94.3727 38.9378C94.9437 38.5313 94.3987 38.1556 94.1957 37.8578C92.9239 35.998 90.1349 35.7002 88.4265 37.2103C88.2708 37.2883 88.1127 37.3663 87.957 37.4442L87.813 37.5033L87.9499 37.4348ZM95.6917 45.0654C95.543 44.458 96.0433 43.7302 95.0523 43.5837C94.0801 43.4395 94.1438 44.1343 93.9904 44.7298C93.0962 48.1989 91.7984 51.4175 88.495 53.3482C88.1788 53.5325 88.0254 53.7357 88.1953 54.1044C88.3864 54.5179 88.6059 54.896 89.1486 54.766C89.6795 54.6384 90.1915 54.4447 90.6351 54.1091C93.6837 51.8121 95.2221 48.6881 95.6893 45.0677L95.6917 45.0654Z" fill="white" fill-opacity="0.15"/>
<path id="Vector_6" d="M16.4496 16.748C15.6992 19.9618 16.4708 21.5073 19.4274 22.8283C20.8573 23.4664 22.3533 23.9532 23.7053 24.7614C21.0602 27.5262 15.3594 28.0414 13.1155 22.6842C11.2254 18.1753 13.5449 11.8492 17.8582 9.54276C22.4901 7.0662 27.1645 9.56639 27.7072 14.8102C26.3103 14.3045 24.8474 13.9311 23.5307 13.2647C19.996 11.4782 17.174 14.0067 16.4472 16.748H16.4496Z" fill="white" fill-opacity="0.15"/>
<path id="Vector_7" d="M95.6917 45.0654C95.2245 48.6858 93.6861 51.8098 90.6375 54.1068C90.1915 54.4424 89.6818 54.6361 89.1509 54.7637C88.6106 54.8937 88.3888 54.5156 88.1976 54.1021C88.0278 53.7334 88.1811 53.5302 88.4973 53.3459C91.7984 51.4128 93.0985 48.1966 93.9928 44.7275C94.1462 44.1344 94.0825 43.4396 95.0546 43.5814C96.0457 43.7279 95.5478 44.4557 95.6941 45.0631L95.6917 45.0654Z" fill="white"/>
<path id="Vector_8" d="M88.429 37.208C90.1349 35.698 92.9263 35.9957 94.1982 37.8555C94.4011 38.1533 94.9485 38.5314 94.3751 38.9355C93.9386 39.245 93.4148 39.3348 93.0254 38.8031C91.8551 37.2104 90.2293 36.9457 88.4219 37.1985L88.429 37.208Z" fill="white"/>
<path id="Vector_9" d="M88.4193 37.1985C88.2635 37.2765 88.1054 37.3545 87.9497 37.4325L87.9568 37.4419C88.1125 37.364 88.2706 37.286 88.4263 37.2056L88.4193 37.1962V37.1985Z" fill="white"/>
<path id="Vector_10" d="M87.9509 37.4348L87.813 37.5039C87.8606 37.4848 87.9105 37.4634 87.9581 37.4443L87.9509 37.4348Z" fill="white"/>
</g>
<defs>
<clipPath id="clip0_209_654">
<rect width="102.085" height="64.1001" fill="white" transform="translate(0.4021 0.4021)"/>
</clipPath>
</defs>
</svg>
