<svg width="110" height="65" viewBox="0 0 110 65" fill="none" xmlns="http://www.w3.org/2000/svg">
<path d="M77.78 42.5761C77.9167 43.0191 77.3851 43.5077 77.8737 43.9254C77.9142 44.8621 77.9547 45.8013 77.9952 46.7405C78.0078 47.0215 78.0205 47.3 77.6483 47.3683C77.4686 47.3683 77.3243 47.4316 77.2484 47.6063L77.2408 47.6114C77.0484 47.5936 76.8686 47.6316 76.6889 47.7025C74.2941 48.6493 71.9018 49.6037 69.4993 50.5327C67.783 51.196 66.1071 51.9681 64.3477 52.52C64.3907 52.3377 64.5476 52.2567 64.6818 52.158C66.183 51.0391 67.1121 49.5227 67.7551 47.7987C67.864 47.505 67.8412 47.3531 67.5602 47.1911C65.0185 45.7152 62.4794 44.2343 59.9529 42.7356C59.6491 42.5559 59.4719 42.609 59.2415 42.8242C58.6973 43.3331 58.3049 43.9482 57.915 44.576C57.5733 45.1254 57.4087 45.7811 56.948 46.257C55.2645 48.0063 56.1176 51.0087 57.7328 51.7656C58.2441 52.0036 58.6998 52.358 59.1934 52.6339C59.9808 53.0744 60.6693 53.7984 61.7073 53.5554C60.52 54.1908 59.239 54.5933 57.9783 55.0414C57.7176 55.1351 57.391 55.0895 57.1049 55.0515C56.3379 54.9477 55.5708 54.8566 54.7962 54.811C54.2316 54.7781 53.6899 54.6541 53.1912 54.3326C50.6014 52.6567 48.0117 50.9859 45.3966 49.3556C44.7814 48.9733 44.2422 48.4417 43.503 48.2721H43.5106C42.6701 47.543 41.7461 46.9456 40.7234 46.5025H40.731C39.893 45.7709 38.9665 45.176 37.9463 44.7305H37.9539C37.8298 44.4621 37.5918 44.3786 37.3286 44.3355L37.3336 44.3381C37.2805 44.2976 37.2248 44.2571 37.1716 44.2166C37.1438 44.2115 37.1159 44.2014 37.0931 44.1862C37.0476 44.1507 37.002 44.1153 36.9564 44.0799C36.9033 44.0419 36.8501 44.0039 36.7944 43.9659C36.7615 43.9583 36.7337 43.9432 36.7083 43.9229C36.6678 43.89 36.6273 43.8546 36.5894 43.8216L36.5818 43.8166C36.5337 43.7811 36.4856 43.7432 36.4375 43.7077C35.1692 43.3052 35.3033 42.1939 35.2046 41.2218C34.8198 37.4194 34.4477 33.6145 34.0755 29.8121C33.7186 26.1515 33.3642 22.4934 33.0098 18.8354C33.025 18.7012 33.0376 18.567 33.0503 18.4329C33.2427 18.5164 33.4452 18.5822 33.6275 18.6835C35.5894 19.7822 37.5463 20.8935 39.5108 21.9871C43.2397 24.063 46.9712 26.1363 50.7128 28.1869C51.1103 28.4046 51.4571 28.7514 51.9431 28.7944C52.9659 28.8856 53.9911 28.9691 55.0139 29.0552C55.4037 29.0881 55.7733 29.2121 56.191 29.0678C59.5909 27.9008 63.0034 26.7641 66.4083 25.6098C69.8538 24.4402 73.2992 23.263 76.7421 22.0884C76.8661 24.225 77.0053 26.3591 77.1142 28.4957C77.3268 32.6449 77.5268 36.7941 77.7268 40.9433C77.7521 41.4876 77.7623 42.0344 77.7775 42.5812L77.78 42.5761ZM67.3652 42.5888C66.74 41.2344 65.3198 40.4218 64.0034 40.6673C65.1299 41.3458 66.1653 41.9989 67.3652 42.5888Z" fill="#BE7545"/>
<path d="M43.5055 48.2669C44.2447 48.4391 44.7864 48.9682 45.399 49.3504C48.0141 50.9833 50.6064 52.6541 53.1937 54.3274C53.6924 54.6515 54.2341 54.773 54.7986 54.8059C55.5733 54.8515 56.3404 54.9426 57.1074 55.0464C57.396 55.0844 57.72 55.1299 57.9808 55.0363C59.2415 54.5882 60.5224 54.1831 61.7097 53.5502C62.6363 53.3275 63.4742 52.8769 64.3476 52.5199C66.107 51.9706 67.7829 51.1984 69.4993 50.5327C71.9017 49.6036 74.294 48.6492 76.6888 47.7024C76.8686 47.6315 77.0483 47.5935 77.2407 47.6113C76.5445 48.3606 75.6155 48.6922 74.6991 49.0542C68.6791 51.4339 62.6616 53.8161 56.6441 56.2033C56.2897 56.3425 55.9961 56.383 55.6416 56.1552C51.8038 53.6895 47.9534 51.2415 44.1105 48.7859C43.8877 48.6416 43.6093 48.5505 43.5029 48.2669H43.5055Z" fill="#A55F2F"/>
<path d="M37.9463 44.7278C38.9665 45.1733 39.893 45.7682 40.731 46.4999C39.7032 46.0644 38.7741 45.4746 37.9463 44.7278Z" fill="#A55F2F"/>
<path d="M40.7266 46.4976C41.7493 46.938 42.6733 47.5355 43.5138 48.2671C42.4809 47.8393 41.5594 47.2393 40.7266 46.4976Z" fill="#A55F2F"/>
<path d="M37.3291 44.3354C37.5949 44.3785 37.8329 44.4646 37.9544 44.7304C37.6658 44.7228 37.4734 44.5658 37.3291 44.3354Z" fill="#A55F2F"/>
<path d="M77.251 47.6061C77.3269 47.4315 77.4712 47.3707 77.651 47.3682C77.5573 47.5125 77.4282 47.6011 77.251 47.6061Z" fill="#A55F2F"/>
<path d="M36.5898 43.8191C36.6305 43.8522 36.6712 43.8878 36.7094 43.9208C36.6687 43.8878 36.628 43.8522 36.5898 43.8191Z" fill="#A55F2F"/>
<path d="M36.7949 43.9658C36.8481 44.0038 36.9012 44.0418 36.9569 44.0797C36.9038 44.0418 36.8506 44.0038 36.7949 43.9658Z" fill="#A55F2F"/>
<path d="M33.0532 18.4327C33.0354 18.3517 33.0177 18.2681 33 18.1871C33.0557 16.8783 33.8708 16.0125 34.7392 15.1695C34.8987 15.0126 35.0986 14.9619 35.2986 14.9012C41.7794 12.9544 48.2626 11.0102 54.7434 9.05587C55.0244 8.96979 55.2649 8.97992 55.5281 9.10903C61.7633 12.1443 67.9985 15.1721 74.2337 18.2048C74.3628 18.2681 74.4767 18.3643 74.5982 18.4453C74.6387 18.4884 74.6792 18.5339 74.7197 18.577C74.7628 18.62 74.8058 18.663 74.8488 18.7061L74.8438 18.7036C75.3121 19.8529 75.9754 20.8883 76.7399 21.8629C76.7399 21.9389 76.745 22.0148 76.7475 22.0907C73.3021 23.2654 69.8592 24.4451 66.4138 25.6121C63.0088 26.7665 59.5963 27.9032 56.1965 29.0702C55.7788 29.212 55.4117 29.0879 55.0193 29.0575C53.9966 28.974 52.9713 28.8879 51.9486 28.7968C51.465 28.7538 51.1157 28.4069 50.7182 28.1892C46.9741 26.1387 43.2451 24.0653 39.5162 21.9895C37.5517 20.8959 35.5948 19.7845 33.6329 18.6858C33.4506 18.5846 33.2481 18.5187 33.0557 18.4352L33.0532 18.4327Z" fill="#C2845D"/>
<path d="M76.7369 21.8581C75.9724 20.8834 75.3092 19.8506 74.8408 18.6987C75.456 19.0962 75.9598 19.6227 76.4711 20.1366C76.9648 20.6354 76.6686 21.2809 76.7369 21.8581Z" fill="#A55F2F"/>
<path d="M64.351 52.52C63.4776 52.877 62.6397 53.3276 61.7132 53.5504C60.6752 53.7934 59.9866 53.0694 59.1993 52.6289C58.7057 52.353 58.25 52.0011 57.7386 51.7606C56.1235 51.0036 55.2704 48.0012 56.9539 46.2519C57.4121 45.776 57.5766 45.1204 57.9209 44.571C58.3108 43.9432 58.7032 43.3306 59.2474 42.8192C59.4778 42.604 59.655 42.5508 59.9588 42.7306C62.4853 44.2293 65.0244 45.7127 67.5661 47.1861C67.8471 47.3506 67.8699 47.5025 67.761 47.7937C67.118 49.5176 66.1889 51.034 64.6877 52.153C64.5561 52.2517 64.3966 52.3327 64.3535 52.515L64.351 52.52Z" fill="#C2845D"/>
<path d="M67.3658 42.5886C66.1658 41.9987 65.1304 41.3431 64.0039 40.6671C65.3203 40.4241 66.7405 41.2342 67.3658 42.5886Z" fill="#A55F2F"/>
</svg>
