<svg width="110" height="65" viewBox="0 0 110 65" fill="none" xmlns="http://www.w3.org/2000/svg">
<path d="M32.8646 14.8122C35.8985 10.4101 39.7543 6.91234 45.0141 4.9274C47.7164 3.90999 50.5491 3.63403 53.2619 4.40539C60.1022 6.35376 66.8649 8.55814 73.5146 11.0352C78.9297 13.0533 81.2898 17.4422 82.3022 22.4461C84.6376 33.9866 80.9511 44.1674 73.5781 53.2542C70.5231 57.0179 66.4662 59.7377 61.4745 61.1075C57.5199 62.1947 54.0804 60.9645 50.6585 59.4417C45.7338 57.2507 40.869 54.9299 35.9126 52.8053C31.1113 50.7472 28.4691 47.1564 27.0121 42.5548C25.7104 38.4386 25.9891 34.2693 26.3383 30.0866C27.0509 27.6428 27.767 25.2024 28.4796 22.7619C29.6932 19.9923 31.0761 17.3025 32.8611 14.8122H32.8646ZM74.6188 31.104C74.6188 30.2761 74.6682 29.4482 74.6047 28.6237C74.5553 27.9687 74.3895 27.317 74.2414 26.672C72.6997 19.8494 65.8101 17.1728 59.8941 21.3156C52.4541 26.5257 49.639 33.8237 50.1787 42.342C50.348 45.0119 51.3534 47.5388 53.5054 49.4605C56.4757 52.1138 61.1394 52.1304 64.9352 49.3541C71.2357 44.7492 74.4248 38.6015 74.6153 31.104H74.6188Z" fill="#222120"/>
<path d="M74.6192 31.1042C74.4252 38.6017 71.2397 44.7494 64.9391 49.3543C61.1433 52.1306 56.4796 52.1106 53.5093 49.4607C51.3574 47.539 50.352 45.0121 50.1826 42.3422C49.6429 33.8273 52.458 26.5259 59.898 21.3158C65.8105 17.173 72.7037 19.8496 74.2453 26.6722C74.3899 27.3172 74.5593 27.9689 74.6086 28.6239C74.6721 29.4451 74.6228 30.2763 74.6228 31.1042H74.6192ZM61.2668 23.4371C61.4996 23.3274 61.736 23.2176 61.9688 23.1079C64.671 22.7522 67.1052 23.1245 68.8514 25.3655C69.4335 26.1136 70.2166 25.9872 70.8693 25.5517C71.723 24.9798 70.9081 24.4512 70.6047 24.0322C68.7032 21.4156 64.5334 20.9966 61.9794 23.1212C61.7465 23.2309 61.5102 23.3407 61.2774 23.4504L61.0622 23.5335L61.2668 23.4371ZM72.8413 34.173C72.619 33.3185 73.3669 32.2945 71.8852 32.0884C70.4318 31.8855 70.5271 32.863 70.2978 33.7009C68.9608 38.5818 67.0205 43.1103 62.0817 45.8267C61.609 46.086 61.3797 46.3719 61.6337 46.8906C61.9194 47.4725 62.2475 48.0044 63.0589 47.8216C63.8526 47.642 64.6181 47.3694 65.2813 46.8973C69.8392 43.6655 72.1392 39.27 72.8377 34.1764L72.8413 34.173Z" fill="#787268"/>
<path d="M72.8403 34.1731C72.1418 39.2668 69.8417 43.6622 65.2839 46.894C64.6171 47.3661 63.8552 47.6387 63.0614 47.8183C62.2536 48.0011 61.922 47.4692 61.6362 46.8873C61.3822 46.3686 61.6115 46.0827 62.0842 45.8234C67.0195 43.1036 68.9633 38.5785 70.3003 33.6976C70.5296 32.8631 70.4344 31.8856 71.8878 32.0851C73.3694 32.2912 72.6251 33.3153 72.8438 34.1697L72.8403 34.1731Z" fill="#BBBAB9"/>
<path d="M61.9813 23.1178C64.5318 20.9932 68.7051 21.4122 70.6066 24.0288C70.91 24.4478 71.7284 24.9797 70.8712 25.5483C70.2185 25.9838 69.4354 26.1102 68.8533 25.3621C67.1036 23.1211 64.6729 22.7488 61.9707 23.1045L61.9813 23.1178Z" fill="#414040"/>
</svg>
