<svg width="110" height="70" viewBox="0 0 110 70" fill="none" xmlns="http://www.w3.org/2000/svg">
<path d="M28.2914 13.1947C31.981 7.84106 36.6703 3.58727 43.067 1.17328C46.3533 -0.064037 49.7984 -0.39965 53.0976 0.538448C61.4164 2.90796 69.6408 5.58881 77.728 8.60124C84.3135 11.0557 87.1837 16.3931 88.415 22.4786C91.2551 36.5137 86.7718 48.895 77.8052 59.9459C74.0898 64.5232 69.156 67.8308 63.0853 69.4968C58.276 70.819 54.093 69.3229 49.9314 67.4709C43.9422 64.8063 38.026 61.9839 31.9982 59.4001C26.1591 56.8971 22.9457 52.5301 21.1739 46.9339C19.5908 41.928 19.9297 36.8574 20.3544 31.7707C21.2211 28.7987 22.092 25.8307 22.9586 22.8628C24.4345 19.4945 26.1162 16.2233 28.2871 13.1947H28.2914ZM79.0708 33.008C79.0708 32.0011 79.1309 30.9943 79.0536 29.9915C78.9936 29.1949 78.7919 28.4024 78.6117 27.6179C76.7369 19.3206 68.3581 16.0656 61.1633 21.1038C52.1152 27.44 48.6915 36.3156 49.3479 46.6751C49.5539 49.922 50.7766 52.9951 53.3937 55.3323C57.006 58.559 62.6778 58.5792 67.2941 55.2029C74.9564 49.6026 78.8348 42.1261 79.0665 33.008H79.0708Z" fill="#222120"/>
<path d="M79.0704 33.0081C78.8345 42.1263 74.9604 49.6027 67.298 55.203C62.6817 58.5794 57.01 58.5551 53.3976 55.3324C50.7805 52.9953 49.5578 49.9222 49.3519 46.6752C48.6954 36.3198 52.1191 27.4402 61.1672 21.104C68.3577 16.0657 76.7408 19.3208 78.6157 27.6181C78.7916 28.4025 78.9975 29.1951 79.0576 29.9916C79.1348 30.9904 79.0747 32.0013 79.0747 33.0081H79.0704ZM62.8318 23.6837C63.115 23.5503 63.4024 23.4169 63.6856 23.2834C66.9719 22.8508 69.9322 23.3036 72.0559 26.029C72.7638 26.9388 73.7162 26.7851 74.5099 26.2554C75.5481 25.5599 74.5571 24.917 74.1881 24.4075C71.8757 21.2253 66.8046 20.7158 63.6985 23.2996C63.4153 23.433 63.1279 23.5665 62.8447 23.6999L62.583 23.801L62.8318 23.6837ZM76.9081 36.7403C76.6378 35.7011 77.5474 34.4557 75.7455 34.205C73.9779 33.9583 74.0937 35.1471 73.8149 36.1661C72.1889 42.102 69.8292 47.6093 63.8229 50.9128C63.248 51.2282 62.9691 51.576 63.278 52.2068C63.6255 52.9144 64.0245 53.5614 65.0113 53.339C65.9766 53.1206 66.9076 52.789 67.7141 52.2149C73.2571 48.2845 76.0544 42.939 76.9038 36.7443L76.9081 36.7403Z" fill="#787268"/>
<path d="M76.9078 36.7412C76.0583 42.9358 73.2611 48.2814 67.7181 52.2117C66.9072 52.7859 65.9805 53.1174 65.0152 53.3358C64.0327 53.5582 63.6295 52.9112 63.2819 52.2036C62.973 51.5728 63.2519 51.2251 63.8268 50.9097C69.8289 47.6021 72.1928 42.0988 73.8188 36.1629C74.0977 35.148 73.9818 33.9592 75.7494 34.2018C77.5513 34.4525 76.6461 35.6979 76.9121 36.7371L76.9078 36.7412Z" fill="#BBBAB9"/>
<path d="M63.7004 23.2952C66.8022 20.7114 71.8776 21.2209 74.19 24.4032C74.559 24.9126 75.5543 25.5596 74.5118 26.251C73.7181 26.7808 72.7657 26.9344 72.0578 26.0246C69.9298 23.2993 66.9738 22.8464 63.6875 23.2791L63.7004 23.2952Z" fill="#414040"/>
</svg>
