<svg width="160" height="99" viewBox="0 0 160 99" fill="none" xmlns="http://www.w3.org/2000/svg">
<g id="Image" clip-path="url(#clip0_182_1549)">
<path id="Vector" d="M151.275 67.7065C150.973 75.9595 147.584 82.7574 141.003 87.8607C136.903 91.043 131.787 91.0666 128.5 87.9514C126.157 85.7311 125.072 82.8185 124.89 79.7717L125.315 79.7463L124.89 79.7717C124.319 70.207 127.304 61.9615 135.218 56.0814C138.414 53.707 141.916 53.2618 144.845 54.4376C147.771 55.6119 150.057 58.3746 150.888 62.2751M151.275 67.7065L151.276 64.4993M151.275 67.7065H151.292V67.2808C151.292 67.0169 151.296 66.7462 151.301 66.4714C151.312 65.8244 151.324 65.155 151.276 64.4993M151.275 67.7065L151.276 64.4993M150.888 62.2751C150.888 62.2754 150.888 62.2756 150.888 62.2759L150.471 62.3646L150.888 62.2745C150.888 62.2747 150.888 62.2749 150.888 62.2751ZM150.888 62.2751C150.906 62.3597 150.925 62.4451 150.944 62.5314C151.081 63.1588 151.228 63.8273 151.276 64.4993M103.034 58.1658C104.265 55.1866 105.659 52.3052 107.438 49.6351H107.446L107.571 49.4413C110.708 44.6119 114.677 40.8013 120.074 38.64C122.829 37.5397 125.69 37.2511 128.416 38.0734C135.556 40.2313 142.615 42.6726 149.555 45.4156C155.024 47.5782 157.435 52.2769 158.48 57.7568L158.899 57.6771L158.48 57.7569C160.894 70.4125 157.092 81.5849 149.44 91.5919C146.299 95.6976 142.133 98.6598 137.005 100.153L137.005 100.153C133.035 101.311 129.568 100.014 125.999 98.3289L125.999 98.3289C123.962 97.3674 121.928 96.3801 119.892 95.3916C116.8 93.8902 113.702 92.3861 110.577 90.965C105.697 88.7455 103.001 84.879 101.504 79.8606C100.173 75.3938 100.449 70.8578 100.813 66.226C101.227 64.7194 101.642 63.2146 102.057 61.71C102.383 60.5287 102.708 59.3475 103.034 58.1658Z" stroke="white" stroke-width="0.851466"/>
<path id="Vector_2" d="M36.6275 39.5757C38.5296 40.2344 40.3852 41.0132 42.2068 41.8795C37.9106 47.4117 32.4378 50.3963 25.2333 49.8102L25.2331 49.8102C23.3456 49.6574 21.6632 48.8239 19.91 47.9552C19.7401 47.8711 19.5695 47.7866 19.398 47.7023L19.3978 47.7022C18.1612 47.0954 16.8869 46.5321 15.6233 45.9734C14.867 45.6391 14.1145 45.3064 13.3762 44.9671C11.3865 44.0528 9.457 43.0726 7.67338 41.8257C3.80582 39.1212 1.76522 35.2863 0.968132 30.6985L0.571435 30.7674L0.968131 30.6985C-0.214465 23.8922 1.2817 17.5904 4.89491 11.7476L4.89499 11.7474C7.65343 7.28398 11.4057 3.98206 16.4147 2.26921L16.4149 2.26914C19.4236 1.23893 22.5275 1.2379 25.5104 2.15597L25.5107 2.15607C29.8798 3.4973 34.1786 5.07837 38.4743 6.69342C43.1893 8.46729 45.8457 12.1975 47.4875 16.8546C48.2844 19.1163 48.6254 21.4741 48.4997 23.8835L48.4997 23.8843C48.4937 24.0034 48.4926 24.1343 48.4917 24.2511C48.4913 24.3043 48.4909 24.3545 48.49 24.3994C48.487 24.5587 48.479 24.6901 48.4571 24.8058C48.4308 24.9444 48.3867 25.0577 48.295 25.1557C48.0703 25.077 47.8464 24.9993 47.6233 24.9219C46.0985 24.3929 44.6158 23.8785 43.215 23.1521C42.7144 19.0513 40.6212 15.971 37.6818 14.4011C34.6787 12.797 30.8655 12.8085 27.1185 14.809L27.1184 14.809C23.617 16.6785 20.9542 20.1558 19.5416 24.0436C18.129 27.9312 17.9438 32.2918 19.4799 35.9527C21.3038 40.3004 24.5653 42.3097 27.9341 42.6327C31.1575 42.9418 34.4499 41.7045 36.6275 39.5757Z" stroke="white"/>
<path id="Vector_3" d="M42.7512 23.4669C44.5399 24.4332 46.4761 25.0417 48.3865 25.7129C57.5513 29.2829 66.7124 32.8603 75.8809 36.4193C85.7943 40.2659 95.7188 44.0904 105.629 47.9481C106.263 48.1952 107.155 48.2026 107.218 49.2057C105.352 51.9681 103.906 54.948 102.638 58.0238C96.5818 55.5492 90.5261 53.0782 84.4703 50.5998C80.2291 48.8627 75.9841 47.122 71.7503 45.3702C71.2745 45.1747 70.3709 45.0493 70.6291 44.415C71.4552 42.3755 69.6186 43.15 69.2756 43.3012C67.6197 44.0351 66.303 43.1278 64.909 42.6373C64.046 42.3349 63.2457 41.8628 62.3974 41.5125C53.6899 37.924 45.0009 34.2913 36.2566 30.7914C32.5759 29.3161 29.0096 27.5311 25.163 26.4911C26.2989 22.213 30.7061 18.2668 36.2345 21.0549C38.2924 22.0913 40.579 22.674 42.7623 23.4669H42.7512Z" fill="white" fill-opacity="0.65"/>
<path id="Vector_4" d="M25.1519 26.4909C29.0022 27.5309 32.5649 29.3196 36.2455 30.7911C44.9899 34.2911 53.6789 37.9238 62.3864 41.5123C63.2346 41.8626 64.0349 42.3347 64.8979 42.6371C66.2957 43.1276 67.6086 44.0349 69.2646 43.301C69.6112 43.1461 71.4442 42.3753 70.6181 44.4147C70.3599 45.0491 71.2635 45.1708 71.7392 45.3699C75.9768 47.1218 80.218 48.8625 84.4593 50.5996C90.515 53.0779 96.5708 55.5489 102.627 58.0236C101.882 60.7306 101.133 63.4413 100.388 66.1484C92.1673 62.6484 83.943 59.1632 75.726 55.6485C65.204 51.1454 54.6931 46.6202 44.1748 42.106C43.7839 41.9401 43.3708 41.8257 42.9688 41.6856C40.863 40.6603 38.7092 39.7457 36.489 38.9933C34.3757 37.732 32.0338 36.9723 29.8025 35.9765C25.1814 33.9149 23.9754 31.5029 25.1482 26.4872L25.1519 26.4909Z" fill="white" fill-opacity="0.75"/>
<path id="Vector_5" d="M150.866 67.2808C150.663 75.5973 147.333 82.4165 140.746 87.5245C136.778 90.604 131.902 90.5818 128.797 87.6425C126.547 85.5108 125.496 82.7079 125.319 79.7464C124.755 70.3013 127.698 62.2024 135.476 56.4232C141.657 51.8279 148.864 54.7968 150.475 62.3647C150.626 63.0801 150.804 63.803 150.855 64.5295C150.922 65.4405 150.87 66.3625 150.87 67.2808H150.866ZM136.907 58.7762C137.15 58.6545 137.397 58.5328 137.641 58.4111C140.466 58.0165 143.011 58.4295 144.836 60.9153C145.445 61.7451 146.264 61.6049 146.946 61.1218C147.838 60.4875 146.986 59.9011 146.669 59.4364C144.681 56.5339 140.322 56.0692 137.652 58.4258C137.409 58.5475 137.161 58.6692 136.918 58.791L136.693 58.8832L136.907 58.7762ZM149.007 70.6849C148.775 69.7371 149.557 68.6011 148.008 68.3725C146.489 68.1475 146.588 69.2318 146.348 70.1612C144.951 75.5752 142.922 80.5983 137.759 83.6115C137.265 83.8991 137.025 84.2163 137.291 84.7916C137.589 85.437 137.932 86.0271 138.78 85.8243C139.61 85.6251 140.411 85.3227 141.104 84.799C145.869 81.2142 148.274 76.3386 149.004 70.6886L149.007 70.6849Z" fill="white" fill-opacity="0.15"/>
<path id="Vector_6" d="M25.152 26.4911C23.9792 31.5068 25.1852 33.9188 29.8063 35.9804C32.0413 36.9762 34.3795 37.7359 36.4927 38.9972C32.3584 43.3122 23.4481 44.1162 19.9408 35.7555C16.9867 28.7187 20.612 18.8458 27.3538 15.2463C34.5934 11.3812 41.8994 15.2832 42.7477 23.4669C40.5643 22.6777 38.2777 22.095 36.2198 21.0549C30.6951 18.2668 26.2842 22.213 25.1483 26.4911H25.152Z" fill="white" fill-opacity="0.15"/>
<path id="Vector_7" d="M149.007 70.685C148.277 76.3351 145.873 81.2107 141.108 84.7955C140.411 85.3192 139.614 85.6216 138.784 85.8207C137.94 86.0236 137.593 85.4335 137.294 84.7881C137.029 84.2128 137.268 83.8956 137.763 83.6079C142.922 80.5911 144.954 75.5717 146.352 70.1576C146.592 69.2319 146.492 68.1477 148.012 68.3689C149.561 68.5976 148.782 69.7335 149.011 70.6813L149.007 70.685Z" fill="white"/>
<path id="Vector_8" d="M137.656 58.4222C140.322 56.0655 144.685 56.5302 146.673 59.4327C146.99 59.8974 147.846 60.4875 146.95 61.1182C146.267 61.6013 145.448 61.7414 144.84 60.9116C143.011 58.4259 140.47 58.0128 137.645 58.4075L137.656 58.4222Z" fill="white"/>
<path id="Vector_9" d="M137.641 58.4074C137.397 58.5291 137.15 58.6508 136.907 58.7725L136.918 58.7872C137.161 58.6655 137.408 58.5438 137.652 58.4184L137.641 58.4037V58.4074Z" fill="white"/>
<path id="Vector_10" d="M136.908 58.7762L136.693 58.8836C136.767 58.854 136.845 58.8206 136.919 58.791L136.908 58.7762Z" fill="white"/>
</g>
<defs>
<clipPath id="clip0_182_1549">
<rect width="159.559" height="100.038" fill="white" transform="translate(0.0695801 0.980957)"/>
</clipPath>
</defs>
</svg>
