<svg width="76" height="80" viewBox="0 0 76 80" fill="none" xmlns="http://www.w3.org/2000/svg">
<g id="Layer_1" clip-path="url(#clip0_209_720)">
<path id="Vector" d="M74.8378 56.467C75.0648 57.2025 74.1822 58.0136 74.9933 58.707C75.0605 60.262 75.1278 61.8212 75.195 63.3804C75.216 63.8469 75.2371 64.3092 74.6193 64.4226C74.3209 64.4226 74.0813 64.5277 73.9552 64.8177L73.9426 64.8261C73.6232 64.7967 73.3249 64.8597 73.0265 64.9774C69.0508 66.5492 65.0793 68.1335 61.091 69.6759C58.2416 70.777 55.4594 72.0588 52.5386 72.975C52.6101 72.6724 52.8706 72.5379 53.0934 72.374C55.5855 70.5164 57.1279 67.9991 58.1954 65.1371C58.3761 64.6496 58.3383 64.3974 57.8718 64.1284C53.6523 61.6783 49.4371 59.2198 45.2428 56.7318C44.7385 56.4334 44.4443 56.5217 44.0619 56.8789C43.1583 57.7236 42.5069 58.7449 41.8597 59.7871C41.2924 60.6991 41.0192 61.7876 40.2543 62.5777C37.4595 65.4817 38.8758 70.466 41.5571 71.7226C42.406 72.1176 43.1625 72.706 43.982 73.1641C45.2891 73.8954 46.4322 75.0973 48.1553 74.6939C46.1842 75.7487 44.0577 76.4169 41.9648 77.1608C41.5319 77.3163 40.9898 77.2407 40.5149 77.1776C39.2415 77.0053 37.9681 76.854 36.6821 76.7784C35.7449 76.7237 34.8455 76.5178 34.0176 75.9841C29.7183 73.2019 25.419 70.4282 21.0777 67.7217C20.0564 67.0871 19.1613 66.2045 17.9341 65.923H17.9467C16.5514 64.7126 15.0175 63.7208 13.3196 62.9853H13.3322C11.9411 61.7708 10.403 60.7831 8.7093 60.0435H8.72191C8.51598 59.598 8.12093 59.4593 7.68386 59.3879L7.69226 59.3921C7.60401 59.3248 7.51155 59.2576 7.4233 59.1903C7.37707 59.1819 7.33084 59.1651 7.29301 59.1399C7.21737 59.0811 7.14172 59.0222 7.06607 58.9634C6.97782 58.9004 6.88956 58.8373 6.7971 58.7743C6.74247 58.7617 6.69624 58.7365 6.65421 58.7028C6.58697 58.6482 6.51973 58.5894 6.45669 58.5347L6.44408 58.5263C6.36423 58.4675 6.28438 58.4044 6.20453 58.3456C4.09901 57.6774 4.32175 55.8324 4.15785 54.2186C3.51905 47.9063 2.90126 41.5897 2.28347 35.2773C1.6909 29.2003 1.10253 23.1275 0.51416 17.0547C0.539376 16.832 0.560389 16.6092 0.581402 16.3865C0.900803 16.5252 1.23701 16.6344 1.5396 16.8025C4.79665 18.6265 8.04529 20.4714 11.3065 22.287C17.497 25.7331 23.6917 29.1751 29.9032 32.5792C30.563 32.9407 31.1388 33.5164 31.9457 33.5879C33.6436 33.7392 35.3456 33.8779 37.0435 34.0207C37.6907 34.0754 38.3043 34.2813 38.9977 34.0418C44.6419 32.1043 50.307 30.2174 55.9596 28.301C61.6793 26.3593 67.3991 24.4051 73.1147 22.4551C73.3206 26.0021 73.5518 29.5449 73.7325 33.092C74.0855 39.9801 74.4175 46.8682 74.7495 53.7563C74.7916 54.6599 74.8084 55.5677 74.8336 56.4754L74.8378 56.467ZM57.5482 56.488C56.5101 54.2396 54.1524 52.8906 51.967 53.2982C53.8372 54.4245 55.5561 55.5088 57.5482 56.488Z" fill="#BE7545"/>
<path id="Vector_2" d="M17.9383 65.9145C19.1655 66.2003 20.0648 67.0786 21.0819 67.7132C25.4232 70.4239 29.7267 73.1977 34.0218 75.9756C34.8497 76.5136 35.7491 76.7153 36.6862 76.7699C37.9723 76.8456 39.2457 76.9969 40.5191 77.1692C40.9982 77.2322 41.5361 77.3079 41.969 77.1524C44.0619 76.4085 46.1884 75.7361 48.1594 74.6854C49.6976 74.3156 51.0887 73.5675 52.5386 72.9749C55.4594 72.063 58.2416 70.7812 61.091 69.6759C65.0793 68.1335 69.0508 66.5491 73.0265 64.9773C73.3248 64.8596 73.6232 64.7966 73.9426 64.826C72.7869 66.07 71.2445 66.6206 69.7232 67.2215C59.7293 71.172 49.7396 75.1267 39.75 79.0898C39.1616 79.3209 38.6741 79.3882 38.0857 79.0099C31.7145 74.9166 25.3223 70.8526 18.9427 66.7761C18.5729 66.5365 18.1106 66.3852 17.9341 65.9145H17.9383Z" fill="#A55F2F"/>
<path id="Vector_3" d="M8.70923 60.0391C10.4029 60.7787 11.9411 61.7663 13.3321 62.9809C11.6259 62.2581 10.0835 61.2788 8.70923 60.0391Z" fill="#A55F2F"/>
<path id="Vector_4" d="M13.3237 62.9769C15.0216 63.7082 16.5556 64.7 17.9508 65.9146C16.2362 65.2043 14.7064 64.2083 13.3237 62.9769Z" fill="#A55F2F"/>
<path id="Vector_5" d="M7.68384 59.3877C8.12511 59.4591 8.52016 59.602 8.72189 60.0433C8.24279 60.0307 7.92339 59.7701 7.68384 59.3877Z" fill="#A55F2F"/>
<path id="Vector_6" d="M73.9595 64.8175C74.0856 64.5276 74.3251 64.4267 74.6235 64.4225C74.468 64.662 74.2537 64.8091 73.9595 64.8175Z" fill="#A55F2F"/>
<path id="Vector_7" d="M6.45654 58.5304C6.5241 58.5853 6.59165 58.6444 6.65499 58.6993C6.58743 58.6444 6.51988 58.5853 6.45654 58.5304Z" fill="#A55F2F"/>
<path id="Vector_8" d="M6.79712 58.7743C6.88537 58.8373 6.97363 58.9004 7.06609 58.9634C6.97783 58.9004 6.88958 58.8373 6.79712 58.7743Z" fill="#A55F2F"/>
<path id="Vector_9" d="M0.58557 16.3862C0.556151 16.2518 0.526733 16.1131 0.497314 15.9786C0.589772 13.8058 1.94302 12.3685 3.38453 10.969C3.64929 10.7085 3.9813 10.6244 4.31331 10.5236C15.0721 7.29173 25.835 4.06411 36.5938 0.819672C37.0603 0.676783 37.4595 0.693593 37.8966 0.907928C48.2477 5.94689 58.5988 10.9732 68.9499 16.008C69.1642 16.1131 69.3533 16.2728 69.5551 16.4073C69.6223 16.4787 69.6895 16.5543 69.7568 16.6258C69.8282 16.6972 69.8997 16.7687 69.9711 16.8401L69.9627 16.8359C70.7402 18.7439 71.8413 20.4628 73.1105 22.0808C73.1105 22.2069 73.1189 22.333 73.1231 22.459C67.4033 24.4091 61.6877 26.3675 55.9679 28.3049C50.3154 30.2213 44.6502 32.1083 39.0061 34.0457C38.3126 34.2811 37.7033 34.0751 37.0519 34.0247C35.354 33.886 33.6519 33.7431 31.9541 33.5918C31.1513 33.5204 30.5714 32.9446 29.9116 32.5832C23.6959 29.1791 17.5054 25.7371 11.3149 22.2909C8.05366 20.4754 4.80502 18.6304 1.54797 16.8065C1.24538 16.6384 0.909173 16.5291 0.589772 16.3904L0.58557 16.3862Z" fill="#C2845D"/>
<path id="Vector_10" d="M73.106 22.0725C71.8368 20.4545 70.7357 18.7398 69.9583 16.8276C70.9795 17.4875 71.8158 18.3616 72.6648 19.2147C73.4843 20.0427 72.9926 21.1143 73.106 22.0725Z" fill="#A55F2F"/>
<path id="Vector_11" d="M52.5427 72.975C51.0928 73.5675 49.7017 74.3156 48.1635 74.6854C46.4404 75.0889 45.2973 73.8869 43.9903 73.1557C43.1708 72.6976 42.4143 72.1134 41.5654 71.7142C38.8841 70.4576 37.4678 65.4732 40.2626 62.5692C41.0232 61.7791 41.2964 60.6906 41.868 59.7787C42.5152 58.7364 43.1666 57.7194 44.0701 56.8704C44.4526 56.5132 44.7468 56.425 45.2511 56.7234C49.4453 59.2113 53.6606 61.6741 57.88 64.12C58.3465 64.3932 58.3843 64.6453 58.2036 65.1286C57.1361 67.9906 55.5938 70.508 53.1016 72.3656C52.8831 72.5295 52.6183 72.664 52.5469 72.9665L52.5427 72.975Z" fill="#C2845D"/>
<path id="Vector_12" d="M57.5479 56.4879C55.5558 55.5087 53.837 54.4202 51.9668 53.2981C54.1522 52.8947 56.5098 54.2395 57.5479 56.4879Z" fill="#A55F2F"/>
</g>
<defs>
<clipPath id="clip0_209_720">
<rect width="74.7103" height="78.5515" fill="white" transform="translate(0.497314 0.727417)"/>
</clipPath>
</defs>
</svg>
