<svg width="127" height="91" viewBox="0 0 127 91" fill="none" xmlns="http://www.w3.org/2000/svg">
<g id="Layer_1" clip-path="url(#clip0_209_686)">
<path id="Vector" d="M124.563 58.8911C123.812 62.9508 122.602 66.859 120.886 70.6203C118.902 74.9741 116.404 78.9877 113.061 82.4285C111.23 84.3123 109.144 85.8937 106.671 86.8203C104.439 87.6594 102.17 87.7619 99.9051 86.6993C95.2342 84.5079 90.5431 82.3571 85.8379 80.2467C82.4704 78.7364 80.6487 76.0491 79.6581 72.6224C78.9781 70.2678 78.7324 67.8472 78.7484 65.4369C78.7668 62.7159 79.0988 59.9974 79.7429 57.3274C79.9684 56.3919 80.2988 55.4686 80.3015 54.4848C80.5542 54.3109 80.6159 54.0261 80.6998 53.7622C80.9237 53.0666 81.0759 52.3394 81.3496 51.6637C82.2278 49.4965 83.1527 47.3494 84.2398 45.2771C84.4791 44.6793 84.9525 44.1941 85.098 43.547C85.2692 43.4187 85.5312 43.3458 85.4016 43.0395C86.4491 41.6569 87.4054 40.2096 88.5189 38.8742C90.1834 36.8819 92.0429 35.1294 94.2424 33.7258C96.2309 32.4549 98.3375 31.7089 100.727 31.744C102.071 31.7629 103.285 32.2471 104.503 32.6696C109.215 34.2972 113.903 35.987 118.601 37.652C120.195 38.2163 121.414 39.2413 122.398 40.6088C124.212 43.1303 124.86 46.0238 125.13 49.0246C125.381 51.8046 125.263 54.584 124.846 57.3483C124.814 57.5665 124.719 58.0808 124.563 58.8911ZM118.617 55.0709C118.641 53.1244 118.345 51.2403 117.494 49.4875C116.155 46.7326 113.78 45.5967 110.786 46.7396C108.638 47.5575 106.979 49.024 105.552 50.7474C101.83 55.2454 99.8385 60.5001 99.076 66.2262C98.6758 69.2174 98.7613 72.2117 100.216 74.972C101.24 76.91 102.961 78.0697 105.379 77.6459C107.464 77.2787 109.077 76.0934 110.554 74.6911C112.365 72.9709 113.799 70.9552 114.977 68.757C117.273 64.4794 118.621 59.9551 118.623 55.0738L118.617 55.0709Z" fill="#222120"/>
<path id="Vector_2" d="M6.50691 12.3905C7.54715 11.168 8.54324 9.91002 9.68466 8.77655C12.3788 6.10315 15.5089 4.1875 19.2964 3.62197C20.4375 3.45062 21.6878 3.42644 22.8613 3.79198C27.3778 5.18602 31.8044 6.84724 36.2364 8.4837C37.8724 9.08975 39.1324 10.344 40.2066 11.7516C42.0954 14.2247 42.9081 17.0822 43.3326 20.1027C43.6455 22.3182 43.5774 24.5366 43.3766 26.7408C43.283 27.7673 43.0919 28.3328 43.0039 28.8551C41.3887 28.3221 39.7961 27.7301 38.2634 26.9886C38.4879 24.8544 38.3445 22.7503 37.6195 20.723C35.9568 16.0665 31.7337 14.4265 27.394 16.5802C24.6855 17.9262 22.7029 20.0637 21.1417 22.5998C19.2882 25.6124 18.313 28.8923 18.2131 32.4396C18.1438 34.9132 18.5345 37.2553 19.8263 39.4153C21.4491 42.1305 24.6407 43.3266 27.6366 42.322C31.0309 41.1818 33.3914 38.8417 35.1901 35.8462C36.7988 36.3671 38.3391 37.0561 39.8737 37.7606C37.9734 41.5278 35.4523 44.8135 32.0939 47.3819C29.7499 49.1743 27.1067 50.3492 24.1021 50.5948C22.6642 50.711 21.2351 50.5257 19.9724 49.9632C15.6794 48.0549 11.3397 46.2249 7.20216 43.9859C5.82606 43.2395 4.7754 42.0924 3.8764 40.7837C2.84528 39.2825 2.24862 37.6199 1.67238 35.923C1.43528 35.2296 1.36596 34.3988 1.23704 33.5299C0.572397 29.0386 1.19697 24.6847 2.61403 20.4103C3.43921 17.9282 4.5485 15.5847 5.9917 13.3996C6.10314 13.2301 6.18012 13.0402 6.27275 12.859C6.41646 12.7376 6.557 12.6133 6.50384 12.3906L6.50691 12.3905Z" fill="#222120"/>
<path id="Vector_3" d="M38.2636 26.9853C39.7963 27.7268 84.0736 44.9842 84.2429 45.2831C83.1558 47.3555 82.2309 49.5026 81.3528 51.6729C81.0791 52.3485 80.9268 53.0726 80.703 53.7713C80.619 54.0322 80.5574 54.32 80.3047 54.494C78.1006 53.4172 36.8021 36.3668 35.1934 35.8459C35.0619 35.7702 34.9391 35.6788 34.7989 35.6186C32.5127 34.6705 30.2321 33.7037 27.9316 32.7897C26.7798 32.3313 26.0705 31.5791 25.9417 30.3229C25.6951 27.97 26.5448 26.0681 28.3707 24.6117C29.1592 23.9843 30.0836 23.8598 31.0486 24.2442C31.8082 24.546 32.5648 24.851 33.333 25.1341C34.9844 25.7396 36.5702 26.5102 38.2699 26.9912L38.2636 26.9853Z" fill="#BF8960"/>
<path id="Vector_4" d="M118.617 55.071C118.618 59.9523 117.267 64.4797 114.971 68.7543C113.792 70.9525 112.359 72.9681 110.548 74.6884C109.074 76.0906 107.46 77.2759 105.373 77.6431C102.955 78.067 101.234 76.9073 100.21 74.9693C98.7549 72.2089 98.6694 69.2147 99.0697 66.2235C99.8321 60.4943 101.824 55.2396 105.545 50.7447C106.969 49.0214 108.632 47.5579 110.779 46.7368C113.774 45.5939 116.152 46.7298 117.487 49.4847C118.339 51.2406 118.635 53.1247 118.611 55.0682L118.617 55.071ZM116.229 57.04C115.813 57.1024 115.248 56.9328 115.177 57.682C114.922 60.3981 114.149 62.9738 112.981 65.4329C111.858 67.8015 110.463 69.9819 108.338 71.6015C107.978 71.8772 107.833 72.1461 108.105 72.5648C108.269 72.8209 108.41 73.0961 108.539 73.3718C108.763 73.8504 109.021 73.8361 109.43 73.5434C111.209 72.276 112.549 70.6229 113.671 68.78C115.676 65.4829 116.888 61.922 117.193 58.0639C117.272 57.0593 117.242 56.9926 116.229 57.04ZM108.698 50.4206C109.001 50.2942 109.298 50.1434 109.611 50.0474C110.774 49.6787 111.934 49.6174 112.972 50.3684C113.573 50.8012 114.025 50.5133 114.504 50.2154C114.73 50.0761 115.126 49.9467 115.024 49.6395C114.861 49.1529 114.372 48.9562 113.912 48.7864C113.815 48.7525 113.716 48.7249 113.617 48.7035C111.623 48.2286 110.067 49.0955 108.698 50.4206Z" fill="#787268"/>
<path id="Vector_5" d="M38.2637 26.9854C36.5671 26.5042 34.9781 25.7338 33.3268 25.1282C32.5587 24.8482 31.8021 24.5432 31.0424 24.2384C30.0774 23.8539 29.153 23.9784 28.3645 24.6059C26.5386 26.0622 25.692 27.964 25.9355 30.317C26.0674 31.5731 26.7736 32.3254 27.9254 32.7839C30.2259 33.6978 32.5065 34.6646 34.7927 35.6128C34.9328 35.6698 35.0556 35.7612 35.1872 35.84C33.3885 38.8355 31.028 41.1756 27.6337 42.3158C24.6379 43.3235 21.4431 42.1244 19.8234 39.4092C18.5317 37.2492 18.141 34.907 18.2102 32.4334C18.3102 28.8892 19.2853 25.6062 21.1388 22.5936C22.7 20.0575 24.6826 17.92 27.3911 16.574C31.7308 14.4203 35.9539 16.0603 37.6166 20.7168C38.3416 22.7441 38.4881 24.8481 38.2605 26.9824L38.2637 26.9854Z" fill="#787268"/>
<path id="Vector_6" d="M116.229 57.04C117.245 56.9956 117.275 57.0592 117.193 58.0639C116.888 61.922 115.676 65.486 113.671 68.78C112.552 70.6228 111.209 72.276 109.43 73.5434C109.021 73.836 108.763 73.8503 108.539 73.3718C108.41 73.0961 108.273 72.8208 108.105 72.5648C107.833 72.1492 107.978 71.8772 108.338 71.6014C110.464 69.9819 111.858 67.8015 112.982 65.4329C114.146 62.977 114.919 60.3982 115.177 57.6819C115.249 56.9327 115.81 57.1025 116.229 57.04Z" fill="#BBBAB9"/>
<path id="Vector_7" d="M108.698 50.4205C110.07 49.0922 111.623 48.2254 113.617 48.7033C113.717 48.7279 113.816 48.7524 113.912 48.7862C114.372 48.9561 114.861 49.1527 115.024 49.6394C115.126 49.9466 114.73 50.0729 114.504 50.2153C114.025 50.5132 113.573 50.8011 112.972 50.3682C111.934 49.6203 110.774 49.6816 109.612 50.0473C109.298 50.1463 109.002 50.2941 108.698 50.4205Z" fill="#414040"/>
</g>
<defs>
<clipPath id="clip0_209_686">
<rect width="123.555" height="86.5527" fill="white" transform="translate(0.14502 4.15088) rotate(-1.812)"/>
</clipPath>
</defs>
</svg>
