<svg width="548" height="209" viewBox="0 0 548 209" fill="none" xmlns="http://www.w3.org/2000/svg">
<g clip-path="url(#clip0_464_3203)">
<path d="M5.5 115.45C42.85 86.06 124.29 21.98 127.73 19.42C131.09 16.92 134.63 15.09 139.13 15.6C148.68 16.67 291.35 21.03 290.99 24.14C288.53 23.82 246.78 41.42 246.78 41.42M246.78 41.42C246.78 41.42 209.44 133.49 212.16 130.17C212.78 129.41 247.25 43.69 246.78 41.42ZM246.78 41.42C256.42 37.84 266.06 34.27 275.7 30.69C275.7 30.23 296.4 21.77 302.26 19.92C309.44 17.65 316.48 14.91 323.58 12.38C323.72 13.35 350.01 2.48999 350.01 2.48999C350.01 2.48999 332.51 78.99 328.87 95.11C323.94 96.52 318.97 97.81 314.08 99.34C281.37 109.58 248.68 119.88 215.96 130.11C214.92 130.44 214.06 130.62 213.97 131.86" stroke="white" stroke-width="4.5" stroke-miterlimit="10"/>
<path d="M546.19 182.38C546.01 183.61 546.53 185.23 544.35 185.02C543.76 184.78 542.63 184.45 542.65 184.3C543.45 179.07 539.69 179.28 536.35 178.85C526.36 177.57 516.35 176.62 506.31 175.77C491.02 174.48 475.79 172.62 460.52 171.04C449.68 169.92 438.83 168.89 428 167.74C416.84 166.56 405.7 165.26 394.54 164.07C383.7 162.92 372.86 161.89 362.02 160.73C351.19 159.57 340.39 158.21 329.55 157.12C318.05 155.96 306.49 155.31 295.02 153.9C274.55 151.38 254.06 149.1 233.55 146.97C230.03 146.6 9.99001 127.63 0.420013 124.89" stroke="white" stroke-width="4.5" stroke-miterlimit="10"/>
<path d="M523.99 122.26C530.59 135.42 535.71 149.21 541.31 162.8C543.92 169.13 547.27 175.17 546.19 182.38" stroke="white" stroke-width="4.5" stroke-miterlimit="10"/>
<path d="M0.410004 124.89C11.16 126.07 230.02 146.61 233.54 146.97C254.05 149.1 274.54 151.37 295.01 153.9C306.48 155.31 318.04 155.96 329.54 157.12C340.37 158.21 351.18 159.57 362.01 160.73C372.84 161.89 383.69 162.92 394.53 164.07C405.69 165.26 416.83 166.56 427.99 167.74C438.83 168.89 449.67 169.91 460.51 171.04C475.77 172.62 491.01 174.48 506.3 175.77C516.34 176.62 526.35 177.57 536.34 178.85C539.69 179.28 543.45 179.07 542.64 184.3C542.62 184.45 543.75 184.78 544.34 185.02C544.01 185.37 543.68 185.71 543.35 186.06C539.19 186.37 531.95 202.81 532.11 207.07C513.1 206.08 494.28 203.29 475.4 201.15C459.28 199.32 443.12 197.86 427.03 195.88C413.97 194.27 400.85 193.26 387.82 191.31C374.76 189.36 361.55 188.45 348.41 186.97C335.29 185.48 322.19 183.8 309.07 182.28C296.42 180.82 283.76 179.45 271.1 178.05C254.64 176.23 238.18 174.45 221.72 172.61C205.44 170.79 189.15 169.1 172.91 167.02C162.6 165.7 13.09 148.11 9.49 147.9" stroke="white" stroke-width="4.5" stroke-miterlimit="10"/>
<path d="M213.97 131.87C214.06 130.63 214.92 130.44 215.96 130.12C248.67 119.89 281.37 109.59 314.08 99.3501C318.97 97.8201 323.94 96.5201 328.87 95.1201C376.24 99.3101 423.62 103.51 470.99 107.7C488.72 109.75 506.44 111.76 524.31 112.18C525.53 113.92 519.84 160.27 519.84 160.27C519.84 160.27 510.13 160.39 508.38 160.24C505.48 160.48 217.91 132.61 213.98 131.87H213.97Z" stroke="white" stroke-width="4.5" stroke-miterlimit="10"/>
<path d="M446.81 105.56C399.44 101.37 376.24 99.3099 328.87 95.1199C332.51 78.9999 346.8 17.17 349.67 5.53995C349.99 4.22995 350.62 2.87995 348.49 2.58995C348.6 1.75995 427.13 6.67995 429.42 6.65995C431.25 7.80995 445.14 90.6599 445.94 96.3899C446.22 98.3699 446.49 102.23 446.81 105.56Z" stroke="white" stroke-width="4.5" stroke-miterlimit="10"/>
<path d="M480.12 17.1001L484.25 27.3201" stroke="white" stroke-width="4.5" stroke-miterlimit="10"/>
<path d="M429.42 6.65991H475.27L524.3 112.18" stroke="white" stroke-width="4.5" stroke-miterlimit="10"/>
<path d="M452.61 6.65991L484.25 109.2" stroke="white" stroke-width="4.5" stroke-miterlimit="10"/>
<path d="M432.01 17.1L479.5 15.75" stroke="white" stroke-width="4.5" stroke-miterlimit="10"/>
<path d="M444.03 84.5801L512.83 90.1801" stroke="white" stroke-width="4.5" stroke-miterlimit="10"/>
<path d="M441.05 67L503.75 67.96" stroke="white" stroke-width="4.5" stroke-miterlimit="10"/>
<path d="M438.17 50.38L495.17 49.48" stroke="white" stroke-width="4.5" stroke-miterlimit="10"/>
<path d="M436.03 38.3701L488.6 36.8601" stroke="white" stroke-width="4.5" stroke-miterlimit="10"/>
<path d="M433.99 27.32L483.22 24.77" stroke="white" stroke-width="4.5" stroke-miterlimit="10"/>
</g>
<defs>
<clipPath id="clip0_464_3203">
<rect width="547.9" height="208.65" fill="white"/>
</clipPath>
</defs>
</svg>
