<svg width="133" height="84" viewBox="0 0 133 84" fill="none" xmlns="http://www.w3.org/2000/svg">
<g id="Layer_1" clip-path="url(#clip0_209_743)">
<g id="Group">
<path id="Vector" d="M132.298 34.6951C132.438 35.1474 131.895 35.6463 132.394 36.0727C132.435 37.0291 132.476 37.988 132.518 38.9469C132.531 39.2338 132.544 39.5181 132.164 39.5879C131.98 39.5879 131.833 39.6525 131.755 39.8308L131.748 39.836C131.551 39.8179 131.368 39.8567 131.184 39.929C128.739 40.8957 126.296 41.8701 123.844 42.8187C122.091 43.4958 120.38 44.2841 118.584 44.8476C118.628 44.6615 118.788 44.5788 118.925 44.478C120.458 43.3356 121.406 41.7874 122.063 40.0272C122.174 39.7274 122.151 39.5723 121.864 39.4069C119.269 37.9001 116.676 36.3881 114.097 34.858C113.787 34.6744 113.606 34.7287 113.371 34.9484C112.815 35.4679 112.414 36.096 112.016 36.737C111.667 37.2979 111.499 37.9673 111.029 38.4532C109.31 40.2392 110.181 43.3046 111.83 44.0774C112.352 44.3203 112.818 44.6822 113.322 44.9639C114.125 45.4136 114.828 46.1528 115.888 45.9047C114.676 46.5535 113.368 46.9644 112.081 47.4219C111.815 47.5175 111.481 47.471 111.189 47.4322C110.406 47.3263 109.623 47.2332 108.832 47.1867C108.256 47.1531 107.703 47.0265 107.193 46.6982C104.549 44.9872 101.905 43.2813 99.2353 41.6168C98.6072 41.2265 98.0567 40.6837 97.302 40.5106H97.3097C96.4516 39.7662 95.5082 39.1562 94.464 38.7039H94.4718C93.6163 37.9569 92.6703 37.3496 91.6287 36.8947H91.6364C91.5098 36.6207 91.2668 36.5354 90.998 36.4914L91.0032 36.494C90.9489 36.4527 90.8921 36.4113 90.8378 36.37C90.8093 36.3648 90.7809 36.3545 90.7577 36.339C90.7111 36.3028 90.6646 36.2666 90.6181 36.2304C90.5638 36.1916 90.5095 36.1529 90.4527 36.1141C90.4191 36.1063 90.3906 36.0908 90.3648 36.0702C90.3234 36.0366 90.2821 36.0004 90.2433 35.9668L90.2356 35.9616C90.1864 35.9254 90.1373 35.8866 90.0882 35.8505C88.7933 35.4395 88.9303 34.3048 88.8295 33.3123C88.4366 29.4302 88.0567 25.5455 87.6768 21.6634C87.3123 17.9285 86.9505 14.1937 86.5886 10.4589C86.6041 10.3219 86.6171 10.185 86.63 10.048C86.8264 10.1333 87.0332 10.2005 87.2193 10.3039C89.2224 11.4256 91.2203 12.5602 93.226 13.6768C97.0332 15.7962 100.843 17.913 104.663 20.0066C105.069 20.2289 105.423 20.583 105.919 20.6269C106.963 20.72 108.01 20.8053 109.054 20.8931C109.452 20.9267 109.83 21.0534 110.256 20.9061C113.727 19.7145 117.211 18.554 120.688 17.3754C124.206 16.1813 127.723 14.9795 131.238 13.7802C131.365 15.9616 131.507 18.1405 131.618 20.3219C131.835 24.5582 132.04 28.7944 132.244 33.0306C132.27 33.5863 132.28 34.1446 132.295 34.7029L132.298 34.6951ZM121.662 34.708C121.024 33.3253 119.574 32.4956 118.23 32.7463C119.38 33.439 120.437 34.1058 121.662 34.708Z" fill="#BE7545"/>
<path id="Vector_2" d="M97.3019 40.5054C98.0566 40.6811 98.6097 41.2213 99.2352 41.6116C101.905 43.2787 104.552 44.9846 107.193 46.693C107.703 47.0239 108.256 47.1479 108.832 47.1815C109.623 47.228 110.406 47.3211 111.189 47.4271C111.484 47.4658 111.815 47.5123 112.081 47.4167C113.368 46.9592 114.676 46.5457 115.888 45.8995C116.834 45.6721 117.69 45.212 118.581 44.8476C120.378 44.2867 122.089 43.4984 123.841 42.8186C126.294 41.8701 128.736 40.8957 131.181 39.929C131.365 39.8566 131.548 39.8179 131.745 39.836C131.034 40.601 130.086 40.9396 129.15 41.3092C123.004 43.7388 116.86 46.1709 110.716 48.6082C110.354 48.7504 110.055 48.7917 109.693 48.5591C105.774 46.0417 101.843 43.5423 97.9196 41.0352C97.6922 40.8879 97.4079 40.7949 97.2993 40.5054H97.3019Z" fill="#A55F2F"/>
<path id="Vector_3" d="M91.6287 36.8921C92.6703 37.347 93.6163 37.9544 94.4718 38.7013C93.4224 38.2568 92.4738 37.6546 91.6287 36.8921Z" fill="#A55F2F"/>
<path id="Vector_4" d="M94.4639 38.6987C95.5081 39.1485 96.4515 39.7584 97.3096 40.5054C96.255 40.0686 95.3142 39.456 94.4639 38.6987Z" fill="#A55F2F"/>
<path id="Vector_5" d="M90.9954 36.4913C91.2667 36.5353 91.5097 36.6231 91.6338 36.8945C91.3391 36.8868 91.1427 36.7265 90.9954 36.4913Z" fill="#A55F2F"/>
<path id="Vector_6" d="M131.755 39.8307C131.833 39.6524 131.98 39.5904 132.164 39.5878C132.068 39.7351 131.936 39.8256 131.755 39.8307Z" fill="#A55F2F"/>
<path id="Vector_7" d="M90.2407 35.9642C90.2823 35.998 90.3238 36.0343 90.3628 36.0681C90.3212 36.0343 90.2797 35.998 90.2407 35.9642Z" fill="#A55F2F"/>
<path id="Vector_8" d="M90.4526 36.1139C90.5072 36.1528 90.5617 36.1918 90.6188 36.2307C90.5643 36.1918 90.5098 36.1528 90.4526 36.1139Z" fill="#A55F2F"/>
<path id="Vector_9" d="M86.63 10.0453C86.6119 9.96264 86.5938 9.87735 86.5757 9.79464C86.6325 8.45838 87.4648 7.57443 88.3513 6.71375C88.5142 6.5535 88.7183 6.5018 88.9225 6.43977C95.5418 4.45218 102.158 2.46459 108.775 0.471833C109.062 0.383955 109.308 0.394293 109.576 0.52611C115.942 3.6251 122.308 6.71633 128.674 9.81273C128.806 9.87735 128.922 9.97556 129.047 10.0583C129.088 10.1022 129.129 10.1487 129.171 10.1927C129.215 10.2366 129.258 10.2806 129.302 10.3245L129.297 10.3219C129.775 11.4953 130.453 12.5525 131.233 13.5475C131.233 13.6251 131.238 13.7026 131.241 13.7802C127.723 14.9794 124.208 16.1839 120.69 17.3754C117.214 18.554 113.73 19.7145 110.259 20.906C109.832 21.0508 109.458 20.9241 109.057 20.8931C108.013 20.8078 106.966 20.7199 105.922 20.6269C105.428 20.5829 105.071 20.2288 104.666 20.0066C100.843 17.913 97.0357 15.7962 93.2286 13.6768C91.2229 12.5602 89.2249 11.4255 87.2218 10.3038C87.0358 10.2004 86.829 10.1332 86.6325 10.0479L86.63 10.0453Z" fill="#C2845D"/>
<path id="Vector_10" d="M131.23 13.5424C130.45 12.5473 129.773 11.4928 129.294 10.3168C129.923 10.7226 130.437 11.2602 130.959 11.7848C131.463 12.294 131.161 12.9531 131.23 13.5424Z" fill="#A55F2F"/>
<path id="Vector_11" d="M118.586 44.8474C117.695 45.2119 116.839 45.6719 115.893 45.8994C114.834 46.1475 114.131 45.4083 113.327 44.9586C112.823 44.6768 112.357 44.3176 111.835 44.072C110.186 43.2992 109.315 40.2338 111.034 38.4478C111.502 37.9619 111.67 37.2925 112.021 36.7316C112.42 36.0907 112.82 35.4652 113.376 34.9431C113.611 34.7234 113.792 34.6691 114.102 34.8526C116.682 36.3827 119.274 37.8973 121.869 39.4016C122.156 39.5696 122.179 39.7247 122.068 40.0219C121.411 41.782 120.463 43.3302 118.93 44.4727C118.796 44.5735 118.633 44.6562 118.589 44.8423L118.586 44.8474Z" fill="#C2845D"/>
<path id="Vector_12" d="M121.662 34.7079C120.437 34.1057 119.38 33.4363 118.23 32.7462C119.574 32.498 121.024 33.3251 121.662 34.7079Z" fill="#A55F2F"/>
</g>
<g id="Group_2">
<path id="Vector_13" d="M20.1504 82.0042C19.5275 81.8284 19.3104 81.234 18.9589 80.7997C14.7408 75.5969 10.5537 70.3707 6.33552 65.1678C5.91939 64.6561 5.85736 64.0719 5.7333 63.5007C4.04553 55.6176 2.37585 47.7318 0.708755 39.8435C0.46063 38.6701 0.248689 37.4889 0.0212402 36.3129C0.845741 36.9797 1.43504 37.8637 2.14323 38.639C3.53119 40.1614 4.93206 41.6708 6.30709 43.2061C8.65395 45.8269 10.9801 48.4659 13.3166 51.0944C13.6035 51.4149 13.8956 51.6734 14.3944 51.7044C15.1388 51.7509 15.8703 51.9706 16.6146 52.0327C17.5012 52.105 18.38 52.3377 19.2923 52.0378C23.1099 50.7817 26.9429 49.5643 30.7656 48.3289C35.7022 46.7316 40.6337 45.1239 45.573 43.5344C46.7335 43.1622 47.9121 42.8468 49.0829 42.5083C49.2819 42.7305 49.3 43.0097 49.3414 43.2862C49.6696 45.3798 50.0056 47.4708 50.3313 49.5643C50.7397 52.1852 51.0757 54.8215 51.5642 57.4268C51.8743 59.081 51.8563 60.7894 52.6678 62.3764C53.3528 63.7152 53.345 65.2738 53.2985 66.7832C52.9521 66.7884 52.7738 66.5248 52.5644 66.318C50.5794 64.3381 48.5867 62.3635 46.6198 60.3656C46.1959 59.9365 45.772 59.8409 45.2344 60.0347C45.0535 60.0993 44.8674 60.1459 44.6813 60.2027C42.5438 60.9057 40.7862 62.1205 39.4913 63.9815C38.5505 65.3358 37.7803 66.7522 37.7183 68.4503C37.4831 69.0887 37.5916 69.6729 38.062 70.151C39.1682 71.2779 40.2383 72.4384 41.2773 73.6274C41.9028 74.3433 42.5464 75.0437 43.6526 74.7749C44.3091 74.8525 44.9501 74.6638 45.6014 74.656C44.5908 75.1833 43.4949 75.4986 42.4326 75.8993C36.5474 78.1143 30.657 80.319 24.7692 82.5314C24.5779 82.6038 24.4073 82.5961 24.2083 82.5754C22.8462 82.4255 21.5125 82.0869 20.1401 82.0093L20.1504 82.0042Z" fill="#C07543"/>
<path id="Vector_14" d="M49.0881 42.5084C47.9172 42.8495 46.7386 43.1623 45.5781 43.5345C40.6389 45.124 35.7074 46.7317 30.7707 48.329C26.9454 49.567 23.115 50.7818 19.2975 52.0379C18.3851 52.3378 17.5089 52.1051 16.6198 52.0328C15.8754 51.9733 15.1439 51.7536 14.3996 51.7045C13.9007 51.6735 13.6087 51.415 13.3218 51.0945C10.9827 48.466 8.65648 45.8296 6.31221 43.2062C4.93977 41.6709 3.53631 40.1615 2.14835 38.6392C1.44275 37.8638 0.853447 36.9798 0.0263616 36.313C-0.056347 36.0752 0.0780545 35.8968 0.189194 35.7159C0.850863 34.6588 1.52029 33.6094 2.17678 32.5497C2.34479 32.2783 2.55673 32.1259 2.87205 32.0354C12.2336 29.3732 21.5952 26.7033 30.949 24.0152C31.391 23.8886 31.6391 24.0799 31.9286 24.2996C32.0061 24.3512 32.0837 24.4029 32.1612 24.4546C32.2103 24.4934 32.2594 24.5322 32.3086 24.5709C32.3086 24.5709 32.306 24.5632 32.306 24.5658C32.3602 24.6562 32.3964 24.7648 32.4688 24.8294C34.2625 26.4319 36.0589 28.0292 37.8552 29.6265C40.9516 32.3766 44.0506 35.1266 47.147 37.8767C47.6639 39.3603 48.4781 40.7069 49.1036 42.1413C49.0984 42.2654 49.0932 42.3869 49.0881 42.5109V42.5084Z" fill="#C2835D"/>
<path id="Vector_15" d="M49.088 42.5085C49.0932 42.3845 49.0984 42.263 49.1035 42.1389C49.3672 42.064 49.4215 41.8158 49.5248 41.6168C49.8169 41.0534 50.0986 40.4847 50.3829 39.9187C50.737 41.4436 50.8999 42.9996 51.1428 44.5426C51.8329 48.8848 52.5023 53.2322 53.1769 57.577C53.743 61.2239 54.309 64.8683 54.8673 68.5152C54.8957 68.6987 54.8906 68.9132 54.8234 69.0838C54.4744 69.9574 54.0971 70.8233 53.7301 71.6891C53.6603 70.5907 53.5233 69.5025 53.2183 68.4402C53.2467 67.8871 53.2752 67.3314 53.301 66.7783C53.3475 65.2715 53.3553 63.7129 52.6703 62.3715C51.8588 60.7845 51.8769 59.0761 51.5667 57.4219C51.0782 54.814 50.7396 52.1802 50.3338 49.5594C50.0082 47.4659 49.6722 45.3749 49.3439 43.2813C49.3 43.0074 49.2819 42.7256 49.0854 42.5033L49.088 42.5085Z" fill="#9B5729"/>
<path id="Vector_16" d="M20.1504 82.0043C21.5228 82.0818 22.8565 82.4204 24.2186 82.5703C24.4176 82.591 24.5908 82.5988 24.7795 82.5264C30.6673 80.3139 36.5551 78.1092 42.4429 75.8942C43.5052 75.4936 44.6011 75.1808 45.6117 74.651C46.6352 74.4055 47.5838 73.9557 48.5608 73.5784C48.6667 73.5913 48.752 73.5629 48.8141 73.4724V73.4646C49.2224 73.3328 49.6308 73.2088 50.034 73.0692C51.2307 72.6608 52.3783 72.1232 53.6008 71.7898C52.8668 72.8262 51.7011 73.1338 50.6026 73.5474C41.7942 76.8557 32.9831 80.1589 24.1773 83.4801C23.7069 83.6585 23.3373 83.6223 22.9082 83.4C21.9958 82.9244 21.024 82.5626 20.1504 82.0069V82.0043Z" fill="#9B5729"/>
<path id="Vector_17" d="M47.1442 37.8741C44.0478 35.1241 40.9489 32.374 37.8525 29.624C36.0561 28.0267 34.2598 26.4293 32.4661 24.8269C32.3911 24.7597 32.3549 24.6511 32.3032 24.5632C33.425 25.1551 34.5028 25.809 35.4591 26.6542C38.1962 29.0708 40.9411 31.4772 43.6808 33.886C45.5831 35.5583 47.488 37.2331 49.3877 38.908C49.4653 38.9778 49.5144 39.076 49.579 39.1639C49.3515 39.1768 49.1939 39.0191 49.0026 38.9338C48.3487 38.6392 47.8679 38.0473 47.1468 37.8767L47.1442 37.8741Z" fill="#9B5729"/>
<path id="Vector_18" d="M53.6007 71.7873C52.3782 72.1233 51.2306 72.6609 50.0339 73.0667C49.6307 73.2037 49.2198 73.3304 48.814 73.4622C48.8553 73.2451 49.0492 73.1598 49.2017 73.0564C50.1476 72.418 51.0057 71.6839 51.7088 70.7819C52.2335 70.1099 52.7633 69.4353 52.9623 68.5746L53.2182 68.4376C53.5232 69.4999 53.6602 70.588 53.73 71.6865C53.686 71.7201 53.6421 71.7511 53.5981 71.7847L53.6007 71.7873Z" fill="#C07543"/>
<path id="Vector_19" d="M47.1443 37.874C47.8654 38.0446 48.3487 38.6365 49.0001 38.9312C49.1887 39.0165 49.3464 39.1741 49.5764 39.1612C49.8763 39.3783 50.1812 39.5928 50.3828 39.9159C50.0959 40.482 49.8142 41.0506 49.5247 41.614C49.4214 41.8156 49.3645 42.0612 49.1034 42.1361C48.4754 40.7042 47.6638 39.355 47.1469 37.8715L47.1443 37.874Z" fill="#C07543"/>
<path id="Vector_20" d="M52.9649 68.5796C52.7659 69.4377 52.2361 70.1123 51.7114 70.7869C51.0084 71.6889 50.1503 72.423 49.2043 73.0614C49.0492 73.1648 48.8579 73.2501 48.8166 73.4672V73.4749C48.7313 73.5111 48.646 73.5447 48.5633 73.5809C47.5863 73.9582 46.6377 74.408 45.6142 74.6535C44.9629 74.6587 44.3219 74.8474 43.6654 74.7724C43.4173 74.1883 42.9365 73.7747 42.523 73.3302C41.2358 71.9551 39.9151 70.6137 38.6615 69.2077C38.3979 68.913 38.1704 68.546 37.7336 68.4478C37.7957 66.7497 38.5659 65.3333 39.5067 63.9789C40.8016 62.118 42.5592 60.9032 44.6967 60.2002C44.7354 60.5078 44.9836 60.6654 45.1774 60.8593C47.5217 63.2061 49.866 65.5504 52.2154 67.8921C52.4558 68.1325 52.7194 68.3522 52.9727 68.5796H52.9649Z" fill="#C2835D"/>
<path id="Vector_21" d="M52.965 68.5796C52.7117 68.3496 52.4506 68.1324 52.2077 67.8921C49.8582 65.5504 47.514 63.2061 45.1697 60.8593C44.9759 60.6654 44.7277 60.5077 44.689 60.2002C44.8725 60.1459 45.0612 60.0994 45.2421 60.0322C45.7797 59.8383 46.2036 59.934 46.6274 60.363C48.5918 62.3635 50.5871 64.3356 52.5721 66.3154C52.7815 66.5248 52.9598 66.7858 53.3062 66.7807C53.2777 67.3338 53.2493 67.8895 53.2209 68.4426C53.1356 68.4891 53.0503 68.5331 52.965 68.5796Z" fill="#BF7C54"/>
<path id="Vector_22" d="M37.7285 68.4452C38.1653 68.5434 38.3928 68.9104 38.6564 69.2051C39.91 70.6111 41.2333 71.9526 42.5179 73.3276C42.934 73.7721 43.4121 74.1857 43.6603 74.7698C42.554 75.0412 41.9105 74.3408 41.285 73.6222C40.246 72.4333 39.1759 71.2728 38.0697 70.1459C37.5993 69.6677 37.4907 69.081 37.7259 68.4452H37.7285Z" fill="#BF7C54"/>
<path id="Vector_23" d="M48.5608 73.5785C48.6461 73.5423 48.7314 73.5087 48.8141 73.4725C48.7521 73.563 48.6642 73.5914 48.5608 73.5785Z" fill="#C07543"/>
</g>
</g>
<defs>
<clipPath id="clip0_209_743">
<rect width="132.525" height="83.1764" fill="white" transform="translate(-0.00219727 0.414917)"/>
</clipPath>
</defs>
</svg>
