<svg width="56" height="51" viewBox="0 0 56 51" fill="none" xmlns="http://www.w3.org/2000/svg">
<path d="M50.1058 49.2187C51.1493 50.2869 52.9379 50.2869 53.9315 49.2187C54.95 48.1257 54.95 46.4366 53.9315 45.3931L30.3069 21.6939C29.2636 20.6506 27.4748 20.6506 26.4812 21.6939C25.4379 22.787 25.4627 24.5011 26.4812 25.5444L50.1058 49.2187ZM50.9753 47.5047L35.6478 32.1523L36.89 30.96L52.2175 46.3122C52.6647 46.7345 52.7639 47.2315 52.3665 47.6785C51.9193 48.0511 51.4475 47.9766 50.9753 47.5047Z" fill="white" fill-opacity="0.85"/>
<path d="M19.4761 49.6163C19.9233 49.6163 20.2462 49.2933 20.3207 48.8214C21.1157 42.1884 21.4386 42.0147 28.1955 40.9216C28.7172 40.8221 29.0403 40.5738 29.0403 40.077C29.0403 39.6049 28.7172 39.3068 28.295 39.2322C21.4883 37.9405 21.1157 37.9654 20.3207 31.3327C20.2462 30.8606 19.9233 30.5377 19.4761 30.5377C19.0041 30.5377 18.6812 30.8606 18.6315 31.3078C17.762 38.04 17.5384 38.2636 10.6572 39.2322C10.2349 39.2821 9.91196 39.6049 9.91196 40.077C9.91196 40.5489 10.2349 40.8221 10.6572 40.9216C17.5384 42.2383 17.7372 42.2383 18.6315 48.871C18.6812 49.2933 19.0041 49.6163 19.4761 49.6163ZM7.6762 27.9789C8.02399 27.9789 8.22271 27.7304 8.29725 27.4076C9.14187 22.6876 9.16672 22.3895 14.1599 21.5449C14.4829 21.4704 14.7313 21.2716 14.7313 20.9238C14.7313 20.5761 14.4829 20.3525 14.1599 20.3028C9.16672 19.4333 9.14187 19.1352 8.29725 14.4152C8.22271 14.0923 8.02399 13.8687 7.6762 13.8687C7.32841 13.8687 7.12966 14.0923 7.05516 14.4152C6.21053 19.1352 6.18568 19.4333 1.19246 20.3028C0.869513 20.3525 0.621094 20.5761 0.621094 20.9238C0.621094 21.2716 0.869513 21.4704 1.19246 21.5449C6.18568 22.3895 6.21053 22.6876 7.05516 27.4076C7.12966 27.7304 7.32841 27.9789 7.6762 27.9789ZM21.2896 12.0801C21.5877 12.0801 21.7367 11.9062 21.7864 11.633C22.631 7.65825 22.5813 7.5092 26.7547 6.66458C27.0281 6.6149 27.2268 6.44101 27.2268 6.16773C27.2268 5.86964 27.0281 5.69575 26.7547 5.64607C22.5813 4.80144 22.631 4.65238 21.7864 0.702517C21.7367 0.429256 21.5877 0.23052 21.2896 0.23052C20.9915 0.23052 20.8424 0.429256 20.7927 0.702517C19.9481 4.65238 19.9978 4.80144 15.8243 5.64607C15.5511 5.69575 15.3524 5.86964 15.3524 6.16773C15.3524 6.44101 15.5511 6.6149 15.8243 6.66458C19.9978 7.5092 19.9481 7.65825 20.7927 11.633C20.8424 11.9062 20.9915 12.0801 21.2896 12.0801ZM41.809 20.8493C42.1567 20.8493 42.3554 20.6257 42.4299 20.3028C43.2747 15.5828 43.2994 15.2847 48.2926 14.4152C48.6406 14.3656 48.864 14.142 48.864 13.7942C48.864 13.4464 48.6406 13.2477 48.2926 13.1732C43.2994 12.3285 43.2747 12.0304 42.4299 7.31046C42.3554 6.98752 42.1567 6.73909 41.809 6.73909C41.4612 6.73909 41.2626 6.98752 41.188 7.31046C40.3432 12.0304 40.3185 12.3285 35.3253 13.1732C35.0022 13.2477 34.754 13.4464 34.754 13.7942C34.754 14.142 35.0022 14.3656 35.3253 14.4152C40.3185 15.2847 40.3432 15.5828 41.188 20.3028C41.2626 20.6257 41.4612 20.8493 41.809 20.8493Z" fill="white" fill-opacity="0.425"/>
</svg>
