<svg width="104" height="65" viewBox="0 0 104 65" fill="none" xmlns="http://www.w3.org/2000/svg">
<g id="Image" clip-path="url(#clip0_209_670)">
<path id="Vector" d="M69.4591 31.3002C71.4997 28.1586 74.0932 25.6624 77.6312 24.2458C79.4488 23.5197 81.3542 23.3227 83.1789 23.8732C87.7798 25.2637 92.3286 26.8369 96.8014 28.6047C100.444 30.045 102.031 33.1771 102.712 36.7483C104.283 44.9844 101.803 52.2501 96.8441 58.7351C94.7892 61.4211 92.0604 63.3621 88.7028 64.3397C86.0429 65.1156 83.7294 64.2377 81.4277 63.1509C78.1152 61.5872 74.8431 59.931 71.5092 58.4147C68.2798 56.9459 66.5025 54.3833 65.5225 51.0992C64.647 48.1617 64.8344 45.1861 65.0693 42.2011C65.5486 40.457 66.0303 38.7154 66.5096 36.9737C67.3259 34.9971 68.2561 33.0775 69.4567 31.3002H69.4591ZM97.5441 42.9272C97.5441 42.3363 97.5773 41.7455 97.5346 41.157C97.5014 40.6896 97.3898 40.2245 97.2902 39.7642C96.2532 34.8951 91.6191 32.9849 87.6398 35.9415C82.6355 39.6598 80.742 44.8682 81.105 50.9474C81.2189 52.8528 81.8952 54.6561 83.3426 56.0276C85.3405 57.9212 88.4774 57.933 91.0306 55.9517C95.2685 52.6653 97.4136 48.2779 97.5417 42.9272H97.5441Z" fill="#222120"/>
<path id="Vector_2" d="M28.1293 26.4644C25.2772 30.2942 21.5874 32.406 16.6875 32.0074C15.2804 31.8935 14.0441 31.222 12.8173 30.6193C10.2784 29.3735 7.57336 28.4505 5.23137 26.8132C2.6592 25.0146 1.30905 22.4638 0.784656 19.4455C0.00873584 14.9798 0.993466 10.8463 3.35445 7.02844C5.16255 4.10272 7.63268 1.92445 10.9357 0.794975C12.9384 0.109223 15.0051 0.109223 16.9864 0.719044C19.8077 1.58513 22.5816 2.60545 25.346 3.64476C28.4995 4.83118 30.2601 7.32741 31.335 10.3765C31.8618 11.8714 32.0872 13.4304 32.0042 15.0225C31.9828 15.4449 32.0706 15.91 31.6079 16.1852C30.3788 15.751 29.1354 15.3619 27.9822 14.7402C27.4341 9.47484 22.7358 6.96437 18.0779 9.45111C13.7404 11.767 11.4079 18.1167 13.3085 22.6465C15.5651 28.0257 21.2979 27.5108 23.9579 24.7322C25.3863 25.2163 26.772 25.8048 28.1269 26.4644H28.1293Z" fill="#222120"/>
<path id="Vector_3" d="M27.9841 14.7378C29.1349 15.3594 30.3806 15.751 31.6098 16.1828C37.5063 18.4797 43.4004 20.7814 49.2993 23.0712C55.6775 25.5461 62.0629 28.0067 68.4387 30.4887C68.8468 30.6477 69.421 30.6524 69.4614 31.2978C68.2607 33.0751 67.3306 34.9924 66.5143 36.9713C62.6181 35.3791 58.7219 33.7893 54.8257 32.1948C52.0969 31.0772 49.3658 29.9572 46.6417 28.8301C46.3356 28.7043 45.7543 28.6236 45.9204 28.2155C46.4519 26.9033 45.2702 27.4016 45.0496 27.4989C43.9841 27.9711 43.137 27.3874 42.2401 27.0718C41.6849 26.8772 41.17 26.5735 40.6242 26.3481C35.0219 24.0393 29.4315 21.7021 23.8055 19.4502C21.4374 18.5011 19.1428 17.3526 16.668 16.6835C17.3988 13.931 20.2344 11.3921 23.7912 13.1859C25.1153 13.8527 26.5865 14.2276 27.9912 14.7378H27.9841Z" fill="#BF8960"/>
<path id="Vector_4" d="M16.6608 16.6833C19.138 17.3524 21.4302 18.5033 23.7983 19.45C29.4243 21.7018 35.0147 24.0391 40.617 26.3479C41.1628 26.5733 41.6777 26.877 42.2329 27.0716C43.1322 27.3872 43.977 27.9709 45.0424 27.4987C45.2654 27.399 46.4447 26.9031 45.9132 28.2153C45.7471 28.6234 46.3285 28.7017 46.6346 28.8299C49.361 29.957 52.0897 31.077 54.8185 32.1946C58.7147 33.7891 62.6109 35.3789 66.5071 36.9711C66.0278 38.7128 65.5461 40.4568 65.0668 42.1985C59.7778 39.9466 54.4863 37.7043 49.1996 35.443C42.4299 32.5457 35.6673 29.6343 28.8999 26.7299C28.6484 26.6231 28.3826 26.5496 28.124 26.4594C26.7691 25.7997 25.3834 25.2113 23.9549 24.7272C22.5953 23.9157 21.0885 23.4269 19.653 22.7862C16.6798 21.4598 15.9039 19.908 16.6584 16.6809L16.6608 16.6833Z" fill="#BF8960"/>
<path id="Vector_5" d="M97.544 42.9271C97.4135 48.2778 95.2708 52.6652 91.0329 55.9516C88.4798 57.9329 85.3429 57.9187 83.3449 56.0275C81.8975 54.656 81.2212 52.8527 81.1073 50.9473C80.7443 44.8704 82.6378 39.6597 87.6422 35.9414C91.619 32.9848 96.2556 34.895 97.2925 39.7641C97.3898 40.2244 97.5037 40.6895 97.5369 41.1569C97.5796 41.743 97.5464 42.3362 97.5464 42.9271H97.544ZM88.5628 37.4553C88.7194 37.377 88.8784 37.2987 89.035 37.2204C90.8526 36.9665 92.4899 37.2322 93.6644 38.8315C94.0559 39.3654 94.5827 39.2753 95.0217 38.9644C95.5959 38.5563 95.0478 38.179 94.8437 37.88C93.5648 36.0126 90.7601 35.7136 89.0421 37.2299C88.8855 37.3082 88.7265 37.3865 88.5699 37.4648L88.4252 37.5241L88.5628 37.4553ZM96.3481 45.1172C96.1986 44.5074 96.7017 43.7765 95.7051 43.6294C94.7275 43.4847 94.7915 44.1823 94.6373 44.7803C93.738 48.2636 92.4329 51.4954 89.1109 53.434C88.793 53.6191 88.6387 53.8232 88.8096 54.1933C89.0018 54.6086 89.2225 54.9882 89.7682 54.8577C90.3021 54.7296 90.817 54.535 91.2631 54.1981C94.3288 51.8917 95.8759 48.7548 96.3457 45.1196L96.3481 45.1172Z" fill="#787268"/>
<path id="Vector_6" d="M16.6607 16.6834C15.9062 19.9104 16.6821 21.4623 19.6553 22.7887C21.0932 23.4294 22.5976 23.9182 23.9572 24.7297C21.2973 27.5059 15.5645 28.0232 13.3079 22.644C11.4073 18.1166 13.7398 11.7645 18.0773 9.44857C22.7352 6.96183 27.4358 9.4723 27.9816 14.7376C26.5769 14.2299 25.1057 13.8549 23.7817 13.1858C20.2271 11.3919 17.3892 13.9309 16.6584 16.6834H16.6607Z" fill="#787268"/>
<path id="Vector_7" d="M96.348 45.1174C95.8781 48.7526 94.3311 51.8895 91.2653 54.1959C90.8169 54.5328 90.3043 54.7274 89.7704 54.8555C89.2271 54.986 89.004 54.6064 88.8118 54.1911C88.641 53.821 88.7952 53.6169 89.1132 53.4318C92.4328 51.4908 93.7402 48.2614 94.6395 44.7781C94.7938 44.1825 94.7297 43.4849 95.7073 43.6272C96.7039 43.7744 96.2032 44.5052 96.3503 45.115L96.348 45.1174Z" fill="#BBBAB9"/>
<path id="Vector_8" d="M89.0445 37.2275C90.76 35.7112 93.5671 36.0102 94.8461 37.8776C95.0501 38.1766 95.6006 38.5563 95.024 38.962C94.5851 39.2729 94.0583 39.363 93.6668 38.8291C92.4898 37.2298 90.855 36.9641 89.0374 37.218L89.0445 37.2275Z" fill="#414040"/>
<path id="Vector_9" d="M89.0349 37.218C88.8783 37.2963 88.7194 37.3746 88.5627 37.4529L88.5699 37.4624C88.7265 37.3841 88.8854 37.3057 89.0421 37.2251L89.0349 37.2156V37.218Z" fill="white"/>
<path id="Vector_10" d="M88.5638 37.4553L88.425 37.5247C88.4729 37.5056 88.5231 37.484 88.571 37.4649L88.5638 37.4553Z" fill="white"/>
</g>
<defs>
<clipPath id="clip0_209_670">
<rect width="102.659" height="64.3634" fill="white" transform="translate(0.523193 0.270386)"/>
</clipPath>
</defs>
</svg>
