<svg width="110" height="65" viewBox="0 0 110 65" fill="none" xmlns="http://www.w3.org/2000/svg">
<path d="M39.7884 19.62C41.9191 16.5283 44.6272 14.0717 48.3214 12.6776C50.2193 11.963 52.2088 11.7692 54.1142 12.311C58.9183 13.6794 63.668 15.2276 68.3384 16.9673C72.1416 18.3847 73.7992 21.4672 74.5102 24.9816C76.1504 33.087 73.5613 40.2373 68.383 46.6193C66.2373 49.2627 63.388 51.1729 59.8821 52.135C57.1047 52.8986 54.689 52.0346 52.2857 50.9651C48.8268 49.4262 45.4102 47.7962 41.9291 46.3041C38.557 44.8586 36.7012 42.3366 35.6779 39.1047C34.7637 36.2138 34.9594 33.2855 35.2047 30.3478C35.7052 28.6315 36.2081 26.9175 36.7086 25.2034C37.5609 23.2582 38.5322 21.3691 39.7859 19.62H39.7884ZM69.1139 31.0624C69.1139 30.4809 69.1486 29.8995 69.104 29.3204C69.0693 28.8603 68.9529 28.4026 68.8488 27.9496C67.7661 23.1578 62.9272 21.278 58.7722 24.1876C53.5468 27.8469 51.5696 32.9726 51.9487 38.9553C52.0676 40.8304 52.7738 42.6051 54.2851 43.9549C56.3713 45.8183 59.6468 45.83 62.3127 43.8801C66.7378 40.6459 68.9776 36.3282 69.1114 31.0624H69.1139Z" fill="#222120"/>
<path d="M69.1143 31.0624C68.978 36.3282 66.7407 40.6459 62.3156 43.8801C59.6496 45.83 56.3742 45.816 54.288 43.9549C52.7766 42.6051 52.0705 40.8304 51.9515 38.9553C51.5725 32.9749 53.5496 27.8469 58.775 24.1876C62.9276 21.278 67.7689 23.1578 68.8516 27.9496C68.9532 28.4026 69.0721 28.8603 69.1068 29.3203C69.1514 29.8971 69.1167 30.4809 69.1167 31.0624H69.1143ZM59.7363 25.6775C59.8999 25.6004 60.0659 25.5234 60.2294 25.4463C62.1273 25.1964 63.8369 25.458 65.0633 27.0319C65.4721 27.5573 66.0222 27.4686 66.4805 27.1627C67.0801 26.761 66.5078 26.3897 66.2947 26.0955C64.9592 24.2577 62.0306 23.9635 60.2368 25.4556C60.0733 25.5327 59.9073 25.6098 59.7438 25.6868L59.5926 25.7452L59.7363 25.6775ZM67.8655 33.2177C67.7094 32.6176 68.2347 31.8984 67.1941 31.7536C66.1733 31.6111 66.2402 32.2977 66.0791 32.8862C65.1401 36.3142 63.7774 39.4947 60.3087 41.4025C59.9767 41.5847 59.8156 41.7855 59.994 42.1498C60.1947 42.5584 60.4251 42.9321 60.995 42.8036C61.5525 42.6775 62.0901 42.486 62.5559 42.1545C65.757 39.8847 67.3725 36.7976 67.863 33.2201L67.8655 33.2177Z" fill="#787268"/>
<path d="M67.8646 33.2181C67.3741 36.7955 65.7586 39.8826 62.5575 42.1524C62.0892 42.484 61.554 42.6755 60.9966 42.8016C60.4292 42.93 60.1963 42.5564 59.9956 42.1478C59.8172 41.7835 59.9783 41.5826 60.3103 41.4005C63.7765 39.4903 65.1417 36.3122 66.0807 32.8841C66.2418 32.298 66.1749 31.6115 67.1957 31.7516C68.2363 31.8964 67.7135 32.6156 67.8671 33.2157L67.8646 33.2181Z" fill="#BBBAB9"/>
<path d="M60.2379 25.4533C62.0292 23.9611 64.9603 24.2554 66.2958 26.0931C66.5089 26.3874 67.0837 26.761 66.4816 27.1603C66.0232 27.4662 65.4732 27.5549 65.0644 27.0295C63.8355 25.4556 62.1284 25.1941 60.2305 25.444L60.2379 25.4533Z" fill="#414040"/>
</svg>
