<svg width="110" height="65" viewBox="0 0 110 65" fill="none" xmlns="http://www.w3.org/2000/svg">
<path d="M89.78 42.5761C89.9167 43.0191 89.3851 43.5077 89.8737 43.9254C89.9142 44.8621 89.9547 45.8013 89.9952 46.7405C90.0078 47.0215 90.0205 47.3 89.6483 47.3683C89.4686 47.3683 89.3243 47.4316 89.2484 47.6063L89.2408 47.6114C89.0484 47.5936 88.8686 47.6316 88.6889 47.7025C86.2941 48.6493 83.9018 49.6037 81.4993 50.5327C79.783 51.196 78.1071 51.9681 76.3477 52.52C76.3907 52.3377 76.5476 52.2567 76.6818 52.158C78.183 51.0391 79.1121 49.5227 79.7551 47.7987C79.864 47.505 79.8412 47.3531 79.5602 47.1911C77.0185 45.7152 74.4794 44.2343 71.9529 42.7356C71.6491 42.5559 71.4719 42.609 71.2415 42.8242C70.6973 43.3331 70.3049 43.9482 69.915 44.576C69.5733 45.1254 69.4087 45.7811 68.948 46.257C67.2645 48.0063 68.1176 51.0087 69.7328 51.7656C70.2441 52.0036 70.6998 52.358 71.1934 52.6339C71.9808 53.0744 72.6693 53.7984 73.7073 53.5554C72.52 54.1908 71.239 54.5933 69.9783 55.0414C69.7176 55.1351 69.391 55.0895 69.1049 55.0515C68.3379 54.9477 67.5708 54.8566 66.7962 54.811C66.2316 54.7781 65.6899 54.6541 65.1912 54.3326C62.6014 52.6567 60.0117 50.9859 57.3966 49.3556C56.7814 48.9733 56.2422 48.4417 55.503 48.2721H55.5106C54.6701 47.543 53.7461 46.9456 52.7234 46.5025H52.731C51.893 45.7709 50.9665 45.176 49.9463 44.7305H49.9539C49.8298 44.4621 49.5918 44.3786 49.3286 44.3355L49.3336 44.3381C49.2805 44.2976 49.2248 44.2571 49.1716 44.2166C49.1438 44.2115 49.1159 44.2014 49.0931 44.1862C49.0476 44.1507 49.002 44.1153 48.9564 44.0799C48.9033 44.0419 48.8501 44.0039 48.7944 43.9659C48.7615 43.9583 48.7337 43.9432 48.7083 43.9229C48.6678 43.89 48.6273 43.8546 48.5894 43.8216L48.5818 43.8166C48.5337 43.7811 48.4856 43.7432 48.4375 43.7077C47.1692 43.3052 47.3033 42.1939 47.2046 41.2218C46.8198 37.4194 46.4477 33.6145 46.0755 29.8121C45.7186 26.1515 45.3642 22.4934 45.0098 18.8354C45.025 18.7012 45.0376 18.567 45.0503 18.4329C45.2427 18.5164 45.4452 18.5822 45.6275 18.6835C47.5894 19.7822 49.5463 20.8935 51.5108 21.9871C55.2397 24.063 58.9712 26.1363 62.7128 28.1869C63.1103 28.4046 63.4571 28.7514 63.9431 28.7944C64.9659 28.8856 65.9911 28.9691 67.0139 29.0552C67.4037 29.0881 67.7733 29.2121 68.191 29.0678C71.5909 27.9008 75.0034 26.7641 78.4083 25.6098C81.8538 24.4402 85.2992 23.263 88.7421 22.0884C88.8661 24.225 89.0053 26.3591 89.1142 28.4957C89.3268 32.6449 89.5268 36.7941 89.7268 40.9433C89.7521 41.4876 89.7623 42.0344 89.7775 42.5812L89.78 42.5761ZM79.3652 42.5888C78.74 41.2344 77.3198 40.4218 76.0034 40.6673C77.1299 41.3458 78.1653 41.9989 79.3652 42.5888Z" fill="#BE7545"/>
<path d="M55.5055 48.2669C56.2447 48.4391 56.7864 48.9682 57.399 49.3504C60.0141 50.9833 62.6064 52.6541 65.1937 54.3274C65.6924 54.6515 66.2341 54.773 66.7986 54.8059C67.5733 54.8515 68.3404 54.9426 69.1074 55.0464C69.396 55.0844 69.72 55.1299 69.9808 55.0363C71.2415 54.5882 72.5224 54.1831 73.7097 53.5502C74.6363 53.3275 75.4742 52.8769 76.3476 52.5199C78.107 51.9706 79.7829 51.1984 81.4993 50.5327C83.9017 49.6036 86.294 48.6492 88.6888 47.7024C88.8686 47.6315 89.0483 47.5935 89.2407 47.6113C88.5445 48.3606 87.6155 48.6922 86.6991 49.0542C80.6791 51.4339 74.6616 53.8161 68.6441 56.2033C68.2897 56.3425 67.9961 56.383 67.6416 56.1552C63.8038 53.6895 59.9534 51.2415 56.1105 48.7859C55.8877 48.6416 55.6093 48.5505 55.5029 48.2669H55.5055Z" fill="#A55F2F"/>
<path d="M49.9463 44.7278C50.9665 45.1733 51.893 45.7682 52.731 46.4999C51.7032 46.0644 50.7741 45.4746 49.9463 44.7278Z" fill="#A55F2F"/>
<path d="M52.7266 46.4976C53.7493 46.938 54.6733 47.5355 55.5138 48.2671C54.4809 47.8393 53.5594 47.2393 52.7266 46.4976Z" fill="#A55F2F"/>
<path d="M49.3291 44.3354C49.5949 44.3785 49.8329 44.4646 49.9544 44.7304C49.6658 44.7228 49.4734 44.5658 49.3291 44.3354Z" fill="#A55F2F"/>
<path d="M89.251 47.6061C89.3269 47.4315 89.4712 47.3707 89.651 47.3682C89.5573 47.5125 89.4282 47.6011 89.251 47.6061Z" fill="#A55F2F"/>
<path d="M48.5898 43.8191C48.6305 43.8522 48.6712 43.8878 48.7094 43.9208C48.6687 43.8878 48.628 43.8522 48.5898 43.8191Z" fill="#A55F2F"/>
<path d="M48.7949 43.9658C48.8481 44.0038 48.9012 44.0418 48.9569 44.0797C48.9038 44.0418 48.8506 44.0038 48.7949 43.9658Z" fill="#A55F2F"/>
<path d="M45.0532 18.4327C45.0354 18.3517 45.0177 18.2681 45 18.1871C45.0557 16.8783 45.8708 16.0125 46.7392 15.1695C46.8987 15.0126 47.0986 14.9619 47.2986 14.9012C53.7794 12.9544 60.2626 11.0102 66.7434 9.05587C67.0244 8.96979 67.2649 8.97992 67.5281 9.10903C73.7633 12.1443 79.9985 15.1721 86.2337 18.2048C86.3628 18.2681 86.4767 18.3643 86.5982 18.4453C86.6387 18.4884 86.6792 18.5339 86.7197 18.577C86.7628 18.62 86.8058 18.663 86.8488 18.7061L86.8438 18.7036C87.3121 19.8529 87.9754 20.8883 88.7399 21.8629C88.7399 21.9389 88.745 22.0148 88.7475 22.0907C85.3021 23.2654 81.8592 24.4451 78.4138 25.6121C75.0088 26.7665 71.5963 27.9032 68.1965 29.0702C67.7788 29.212 67.4117 29.0879 67.0193 29.0575C65.9966 28.974 64.9713 28.8879 63.9486 28.7968C63.465 28.7538 63.1157 28.4069 62.7182 28.1892C58.9741 26.1387 55.2451 24.0653 51.5162 21.9895C49.5517 20.8959 47.5948 19.7845 45.6329 18.6858C45.4506 18.5846 45.2481 18.5187 45.0557 18.4352L45.0532 18.4327Z" fill="#C2845D"/>
<path d="M88.7369 21.8581C87.9724 20.8834 87.3092 19.8506 86.8408 18.6987C87.456 19.0962 87.9598 19.6227 88.4711 20.1366C88.9648 20.6354 88.6686 21.2809 88.7369 21.8581Z" fill="#A55F2F"/>
<path d="M76.351 52.52C75.4776 52.877 74.6397 53.3276 73.7132 53.5504C72.6752 53.7934 71.9866 53.0694 71.1993 52.6289C70.7057 52.353 70.25 52.0011 69.7386 51.7606C68.1235 51.0036 67.2704 48.0012 68.9539 46.2519C69.4121 45.776 69.5766 45.1204 69.9209 44.571C70.3108 43.9432 70.7032 43.3306 71.2474 42.8192C71.4778 42.604 71.655 42.5508 71.9588 42.7306C74.4853 44.2293 77.0244 45.7127 79.5661 47.1861C79.8471 47.3506 79.8699 47.5025 79.761 47.7937C79.118 49.5176 78.1889 51.034 76.6877 52.153C76.5561 52.2517 76.3966 52.3327 76.3535 52.515L76.351 52.52Z" fill="#C2845D"/>
<path d="M79.3658 42.5886C78.1658 41.9987 77.1304 41.3431 76.0039 40.6671C77.3203 40.4241 78.7405 41.2342 79.3658 42.5886Z" fill="#A55F2F"/>
<path d="M66.4167 27.6438L67 55.5L48.3333 43.3562L46 16L66.4167 27.6438Z" fill="black" fill-opacity="0.3" style="mix-blend-mode:soft-light"/>
<path d="M49.78 42.5761C49.9167 43.0191 49.3851 43.5077 49.8737 43.9254C49.9142 44.8621 49.9547 45.8013 49.9952 46.7405C50.0078 47.0215 50.0205 47.3 49.6483 47.3683C49.4686 47.3683 49.3243 47.4316 49.2484 47.6063L49.2408 47.6114C49.0484 47.5936 48.8686 47.6316 48.6889 47.7025C46.2941 48.6493 43.9018 49.6037 41.4993 50.5327C39.783 51.196 38.1071 51.9681 36.3477 52.52C36.3907 52.3377 36.5476 52.2567 36.6818 52.158C38.183 51.0391 39.1121 49.5227 39.7551 47.7987C39.864 47.505 39.8412 47.3531 39.5602 47.1911C37.0185 45.7152 34.4794 44.2343 31.9529 42.7356C31.6491 42.5559 31.4719 42.609 31.2415 42.8242C30.6973 43.3331 30.3049 43.9482 29.915 44.576C29.5733 45.1254 29.4087 45.7811 28.948 46.257C27.2645 48.0063 28.1176 51.0087 29.7328 51.7656C30.2441 52.0036 30.6998 52.358 31.1934 52.6339C31.9808 53.0744 32.6693 53.7984 33.7073 53.5554C32.52 54.1908 31.239 54.5933 29.9783 55.0414C29.7176 55.1351 29.391 55.0895 29.1049 55.0515C28.3379 54.9477 27.5708 54.8566 26.7962 54.811C26.2316 54.7781 25.6899 54.6541 25.1912 54.3326C22.6014 52.6567 20.0117 50.9859 17.3966 49.3556C16.7814 48.9733 16.2422 48.4417 15.503 48.2721H15.5106C14.6701 47.543 13.7461 46.9456 12.7234 46.5025H12.731C11.893 45.7709 10.9665 45.176 9.94626 44.7305H9.95386C9.82981 44.4621 9.59185 44.3786 9.32857 44.3355L9.33363 44.3381C9.28047 44.2976 9.22477 44.2571 9.17161 44.2166C9.14376 44.2115 9.11592 44.2014 9.09313 44.1862C9.04757 44.1507 9.002 44.1153 8.95643 44.0799C8.90327 44.0419 8.85011 44.0039 8.79441 43.9659C8.7615 43.9583 8.73366 43.9432 8.70834 43.9229C8.66784 43.89 8.62733 43.8546 8.58936 43.8216L8.58176 43.8166C8.53366 43.7811 8.48557 43.7432 8.43747 43.7077C7.16917 43.3052 7.30334 42.1939 7.20461 41.2218C6.81981 37.4194 6.44768 33.6145 6.07554 29.8121C5.7186 26.1515 5.36418 22.4934 5.00977 18.8354C5.02495 18.7012 5.03761 18.567 5.05027 18.4329C5.24267 18.5164 5.44519 18.5822 5.62746 18.6835C7.5894 19.7822 9.54628 20.8935 11.5108 21.9871C15.2397 24.063 18.9712 26.1363 22.7128 28.1869C23.1103 28.4046 23.4571 28.7514 23.9431 28.7944C24.9659 28.8856 25.9911 28.9691 27.0139 29.0552C27.4037 29.0881 27.7733 29.2121 28.191 29.0678C31.5909 27.9008 35.0034 26.7641 38.4083 25.6098C41.8538 24.4402 45.2992 23.263 48.7421 22.0884C48.8661 24.225 49.0053 26.3591 49.1142 28.4957C49.3268 32.6449 49.5268 36.7941 49.7268 40.9433C49.7521 41.4876 49.7623 42.0344 49.7775 42.5812L49.78 42.5761ZM39.3652 42.5888C38.74 41.2344 37.3198 40.4218 36.0034 40.6673C37.1299 41.3458 38.1653 41.9989 39.3652 42.5888Z" fill="#BE7545"/>
<path d="M15.5055 48.2669C16.2447 48.4391 16.7864 48.9682 17.399 49.3504C20.0141 50.9833 22.6064 52.6541 25.1937 54.3274C25.6924 54.6515 26.2341 54.773 26.7986 54.8059C27.5733 54.8515 28.3404 54.9426 29.1074 55.0464C29.396 55.0844 29.72 55.1299 29.9808 55.0363C31.2415 54.5882 32.5224 54.1831 33.7097 53.5502C34.6363 53.3275 35.4742 52.8769 36.3476 52.5199C38.107 51.9706 39.7829 51.1984 41.4993 50.5327C43.9017 49.6036 46.294 48.6492 48.6888 47.7024C48.8686 47.6315 49.0483 47.5935 49.2407 47.6113C48.5445 48.3606 47.6155 48.6922 46.6991 49.0542C40.6791 51.4339 34.6616 53.8161 28.6441 56.2033C28.2897 56.3425 27.9961 56.383 27.6416 56.1552C23.8038 53.6895 19.9534 51.2415 16.1105 48.7859C15.8877 48.6416 15.6093 48.5505 15.5029 48.2669H15.5055Z" fill="#A55F2F"/>
<path d="M9.94629 44.7278C10.9665 45.1733 11.893 45.7682 12.731 46.4999C11.7032 46.0644 10.7741 45.4746 9.94629 44.7278Z" fill="#A55F2F"/>
<path d="M12.7266 46.4976C13.7493 46.938 14.6733 47.5355 15.5138 48.2671C14.4809 47.8393 13.5594 47.2393 12.7266 46.4976Z" fill="#A55F2F"/>
<path d="M9.3291 44.3354C9.59491 44.3785 9.83288 44.4646 9.95439 44.7304C9.6658 44.7228 9.4734 44.5658 9.3291 44.3354Z" fill="#A55F2F"/>
<path d="M49.251 47.6061C49.3269 47.4315 49.4712 47.3707 49.651 47.3682C49.5573 47.5125 49.4282 47.6011 49.251 47.6061Z" fill="#A55F2F"/>
<path d="M8.58984 43.8191C8.63054 43.8522 8.67123 43.8878 8.70938 43.9208C8.66869 43.8878 8.62799 43.8522 8.58984 43.8191Z" fill="#A55F2F"/>
<path d="M8.79492 43.9658C8.84808 44.0038 8.90125 44.0418 8.95694 44.0797C8.90378 44.0418 8.85062 44.0038 8.79492 43.9658Z" fill="#A55F2F"/>
<path d="M5.05316 18.4327C5.03544 18.3517 5.01772 18.2681 5 18.1871C5.05569 16.8783 5.87085 16.0125 6.73917 15.1695C6.89865 15.0126 7.09864 14.9619 7.29864 14.9012C13.7794 12.9544 20.2626 11.0102 26.7434 9.05587C27.0244 8.96979 27.2649 8.97992 27.5281 9.10903C33.7633 12.1443 39.9985 15.1721 46.2337 18.2048C46.3628 18.2681 46.4767 18.3643 46.5982 18.4453C46.6387 18.4884 46.6792 18.5339 46.7197 18.577C46.7628 18.62 46.8058 18.663 46.8488 18.7061L46.8438 18.7036C47.3121 19.8529 47.9754 20.8883 48.7399 21.8629C48.7399 21.9389 48.745 22.0148 48.7475 22.0907C45.3021 23.2654 41.8592 24.4451 38.4138 25.6121C35.0088 26.7665 31.5963 27.9032 28.1965 29.0702C27.7788 29.212 27.4117 29.0879 27.0193 29.0575C25.9966 28.974 24.9713 28.8879 23.9486 28.7968C23.465 28.7538 23.1157 28.4069 22.7182 28.1892C18.9741 26.1387 15.2451 24.0653 11.5162 21.9895C9.5517 20.8959 7.59482 19.7845 5.63288 18.6858C5.45061 18.5846 5.24809 18.5187 5.05569 18.4352L5.05316 18.4327Z" fill="#C2845D"/>
<path d="M48.7369 21.8581C47.9724 20.8834 47.3092 19.8506 46.8408 18.6987C47.456 19.0962 47.9598 19.6227 48.4711 20.1366C48.9648 20.6354 48.6686 21.2809 48.7369 21.8581Z" fill="#A55F2F"/>
<path d="M36.351 52.52C35.4776 52.877 34.6397 53.3276 33.7132 53.5504C32.6752 53.7934 31.9866 53.0694 31.1993 52.6289C30.7057 52.353 30.25 52.0011 29.7386 51.7606C28.1235 51.0036 27.2704 48.0012 28.9539 46.2519C29.4121 45.776 29.5766 45.1204 29.9209 44.571C30.3108 43.9432 30.7032 43.3306 31.2474 42.8192C31.4778 42.604 31.655 42.5508 31.9588 42.7306C34.4853 44.2293 37.0244 45.7127 39.5661 47.1861C39.8471 47.3506 39.8699 47.5025 39.761 47.7937C39.118 49.5176 38.1889 51.034 36.6877 52.153C36.5561 52.2517 36.3966 52.3327 36.3535 52.515L36.351 52.52Z" fill="#C2845D"/>
<path d="M39.3658 42.5886C38.1658 41.9987 37.1304 41.3431 36.0039 40.6671C37.3203 40.4241 38.7405 41.2342 39.3658 42.5886Z" fill="#A55F2F"/>
</svg>
